<?xml version="1.0" encoding="UTF-8"?>
<svg version="1.1" xmlns="http://www.w3.org/2000/svg" width="64" height="64">
<path d="M0 0 C1.90845703 -0.0937793 1.90845703 -0.0937793 3.85546875 -0.18945312 C13.13854987 -0.34917246 13.13854987 -0.34917246 16.71630859 2.28881836 C18.44963849 4.29881173 19.88458901 6.37144551 21.375 8.5625 C23.08341525 10.06294354 23.08341525 10.06294354 24.75 11.25 C28.62980156 14.90635749 27.82432235 19.70345778 27.98828125 24.70703125 C28.11589844 25.64933594 28.24351563 26.59164063 28.375 27.5625 C31.02353413 29.59547897 31.02353413 29.59547897 34.375 30.5625 C39.17690013 34.48311022 41.41256723 38.91830784 42.3203125 45.00390625 C42.4434514 50.76504745 40.62962155 55.0437476 37 59.4375 C30.46634822 64.72664668 25.66537504 65.39491215 17.375 64.5625 C13.85399181 63.30499707 12.04693015 62.43485919 9.77734375 59.48828125 C6.20703197 56.62622644 2.88822777 57.00357488 -1.5625 57 C-11.58481394 56.94337676 -11.58481394 56.94337676 -15.625 53.5625 C-17.35458674 50.70312459 -17.87896835 48.56317819 -17.8996582 45.24047852 C-17.90919022 44.39602676 -17.91872223 43.55157501 -17.92854309 42.68153381 C-17.92717598 41.32517067 -17.92717598 41.32517067 -17.92578125 39.94140625 C-17.93006638 39.00449448 -17.9343515 38.0675827 -17.93876648 37.10227966 C-17.9445038 35.12280077 -17.94501445 33.1433008 -17.94067383 31.16381836 C-17.93751509 28.13944436 -17.96097628 25.11604989 -17.98632812 22.09179688 C-17.98860134 20.1666679 -17.98930451 18.2415363 -17.98828125 16.31640625 C-17.997491 15.41418839 -18.00670074 14.51197052 -18.01618958 13.58241272 C-17.91706513 0.09371465 -11.85164558 0.25354267 0 0 Z " fill="#093D67" transform="translate(19.625,-0.5625)"/>
<path d="M0 0 C0.91120605 0.01047363 1.82241211 0.02094727 2.76123047 0.03173828 C3.74736328 0.03818359 4.73349609 0.04462891 5.74951172 0.05126953 C7.29832031 0.07640625 7.29832031 0.07640625 8.87841797 0.10205078 C9.91869141 0.11107422 10.95896484 0.12009766 12.03076172 0.12939453 C14.60520889 0.15301331 17.17920009 0.18594929 19.75341797 0.22705078 C19.79080078 0.91412109 19.82818359 1.60119141 19.86669922 2.30908203 C19.9653125 3.66066406 19.9653125 3.66066406 20.06591797 5.03955078 C20.12392578 5.93287109 20.18193359 6.82619141 20.24169922 7.74658203 C20.82416417 10.56998085 21.47096049 11.51702244 23.75341797 13.22705078 C26.25545445 13.80276575 26.25545445 13.80276575 28.94091797 13.91455078 C31.32310547 14.06923828 31.32310547 14.06923828 33.75341797 14.22705078 C33.75341797 17.85705078 33.75341797 21.48705078 33.75341797 25.22705078 C31.24690755 25.68277995 28.74039714 26.13850911 26.23388672 26.59423828 C23.5261395 27.13893527 23.5261395 27.13893527 20.75341797 29.22705078 C18.76049805 29.45410156 18.76049805 29.45410156 16.52294922 29.42236328 C15.72050781 29.41591797 14.91806641 29.40947266 14.09130859 29.40283203 C13.25792969 29.38607422 12.42455078 29.36931641 11.56591797 29.35205078 C10.7209375 29.34302734 9.87595703 29.33400391 9.00537109 29.32470703 C6.92126554 29.30115782 4.8373058 29.26528726 2.75341797 29.22705078 C2.75341797 30.21705078 2.75341797 31.20705078 2.75341797 32.22705078 C7.37341797 32.22705078 11.99341797 32.22705078 16.75341797 32.22705078 C16.42341797 33.54705078 16.09341797 34.86705078 15.75341797 36.22705078 C11.46341797 36.22705078 7.17341797 36.22705078 2.75341797 36.22705078 C2.75341797 36.88705078 2.75341797 37.54705078 2.75341797 38.22705078 C6.71341797 38.22705078 10.67341797 38.22705078 14.75341797 38.22705078 C14.75341797 41.85705078 14.75341797 45.48705078 14.75341797 49.22705078 C11.77419203 49.25389065 8.79520502 49.27381115 5.81591797 49.28955078 C4.96578125 49.29792969 4.11564453 49.30630859 3.23974609 49.31494141 C2.43085938 49.31816406 1.62197266 49.32138672 0.78857422 49.32470703 C0.03970947 49.32994385 -0.70915527 49.33518066 -1.48071289 49.34057617 C-3.24658203 49.22705078 -3.24658203 49.22705078 -4.24658203 48.22705078 C-4.3499013 46.79514217 -4.38508089 45.35822275 -4.3918457 43.92260742 C-4.39822556 43.00818375 -4.40460541 42.09376007 -4.41117859 41.15162659 C-4.41229141 40.15686813 -4.41340424 39.16210968 -4.41455078 38.13720703 C-4.41787918 37.12234726 -4.42120758 36.10748749 -4.42463684 35.06187439 C-4.42971053 32.91063899 -4.43204503 30.75939568 -4.43188477 28.6081543 C-4.43407037 25.30716043 -4.4522191 22.00650103 -4.47119141 18.70556641 C-4.47412534 16.6202811 -4.47611014 14.53499419 -4.47705078 12.44970703 C-4.4842363 11.45697281 -4.49142181 10.46423859 -4.49882507 9.44142151 C-4.49421013 8.06505775 -4.49421013 8.06505775 -4.48950195 6.66088867 C-4.49092697 5.85116104 -4.49235199 5.04143341 -4.49382019 4.20716858 C-4.11446941 1.16896752 -2.99157332 0.30234332 0 0 Z " fill="#00A8E5" transform="translate(10.24658203125,2.77294921875)"/>
<path d="M0 0 C4.05710804 2.17881728 7.28357406 4.62964812 9.375 8.8125 C9.93269904 14.77558973 9.87656448 19.74126868 6.375 24.8125 C1.69698409 29.13966472 -2.0609869 30.18701647 -8.27734375 30.0859375 C-12.78792032 29.56057916 -15.96819221 27.70459411 -18.9453125 24.3046875 C-21.96711709 19.76141487 -22.58956846 15.15172743 -21.625 9.8125 C-16.93879977 0.6136625 -9.95650109 -3.26161243 0 0 Z " fill="#F7D53F" transform="translate(48.625,31.1875)"/>
<path d="M0 0 C0.66 0 1.32 0 2 0 C2 1.65 2 3.3 2 5 C3.65 5 5.3 5 7 5 C7 5.99 7 6.98 7 8 C5.35 8 3.7 8 2 8 C2 9.65 2 11.3 2 13 C1.01 13 0.02 13 -1 13 C-1 11.35 -1 9.7 -1 8 C-2.65 8 -4.3 8 -6 8 C-5.67 7.01 -5.34 6.02 -5 5 C-3.68 5 -2.36 5 -1 5 C-0.67 3.35 -0.34 1.7 0 0 Z " fill="#274A5C" transform="translate(42,39)"/>
<path d="M0 0 C4.95 0 9.9 0 15 0 C15 0.99 15 1.98 15 3 C10.05 3 5.1 3 0 3 C0 2.01 0 1.02 0 0 Z " fill="#054371" transform="translate(13,25)"/>
<path d="M0 0 C2.93200474 2.85276137 5.64315404 5.65079784 8 9 C5.66705225 9.04241723 3.33297433 9.04092937 1 9 C0 8 0 8 -0.09765625 6.15234375 C-0.06510417 4.1015625 -0.03255208 2.05078125 0 0 Z " fill="#00E3C8" transform="translate(33,5)"/>
<path d="M0 0 C0.33 0 0.66 0 1 0 C1 2.97 1 5.94 1 9 C3.75078884 9.91692961 5.35948913 10.10886083 8.1875 10.0625 C9.445625 10.041875 10.70375 10.02125 12 10 C12 10.66 12 11.32 12 12 C10.02 12 8.04 12 6 12 C6 12.66 6 13.32 6 14 C1.125 12.25 1.125 12.25 0 10 C-0.06996014 8.29297265 -0.08440154 6.58331997 -0.0625 4.875 C-0.05347656 3.96492187 -0.04445313 3.05484375 -0.03515625 2.1171875 C-0.02355469 1.41851562 -0.01195313 0.71984375 0 0 Z " fill="#054F78" transform="translate(30,3)"/>
</svg>
