<?xml version="1.0" encoding="UTF-8"?>
<svg version="1.1" xmlns="http://www.w3.org/2000/svg" width="128" height="128">
<path d="M0 0 C2.77435232 0.72010352 4.51963146 2.53821933 6.68359375 4.33984375 C10.90441185 6.51597488 15.85741047 6.06563088 20.515625 6.0703125 C23.94140625 6.50390625 23.94140625 6.50390625 26.30078125 8.2890625 C27.82734329 10.34992125 28.66179902 11.98250966 29.50390625 14.37890625 C31.79747251 19.37627014 35.77587689 21.00025127 40.578125 23.27734375 C42.94140625 24.50390625 42.94140625 24.50390625 43.94140625 26.50390625 C44.04566321 28.8989203 44.12516906 31.29503932 44.19140625 33.69140625 C44.45914641 40.02001607 44.45914641 40.02001607 47.50390625 45.44140625 C50.21831871 48.8518219 50.6932699 50.34722417 50.4453125 54.5625 C49.72520898 57.33685232 47.90709317 59.08213146 46.10546875 61.24609375 C43.92933762 65.46691185 44.37968162 70.41991047 44.375 75.078125 C43.94140625 78.50390625 43.94140625 78.50390625 42.15625 80.86328125 C40.09539125 82.38984329 38.46280284 83.22429902 36.06640625 84.06640625 C31.06904236 86.35997251 29.44506123 90.33837689 27.16796875 95.140625 C25.94140625 97.50390625 25.94140625 97.50390625 23.94140625 98.50390625 C21.5463922 98.60816321 19.15027318 98.68766906 16.75390625 98.75390625 C10.42529643 99.02164641 10.42529643 99.02164641 5.00390625 102.06640625 C1.5934906 104.78081871 0.09808833 105.2557699 -4.1171875 105.0078125 C-6.88981661 104.28815625 -8.63382369 102.47189672 -10.796875 100.671875 C-15.04970721 98.47568013 -20.03418529 98.88661948 -24.73046875 98.83984375 C-28.05859375 98.50390625 -28.05859375 98.50390625 -29.87890625 97.25390625 C-31.20750827 95.28299994 -32.18902818 93.28748189 -33.18359375 91.12890625 C-35.62692226 86.54021612 -38.31397692 84.72070923 -42.97265625 82.57421875 C-45.29783943 81.38114723 -46.57216051 80.66852466 -48.05859375 78.50390625 C-48.39453125 75.17578125 -48.39453125 75.17578125 -48.43359375 71.25390625 C-48.6058985 64.95696644 -48.6058985 64.95696644 -51.62109375 59.56640625 C-54.33550621 56.1559906 -54.8104574 54.66058833 -54.5625 50.4453125 C-53.84239648 47.67096018 -52.02428067 45.92568104 -50.22265625 43.76171875 C-48.04652512 39.54090065 -48.49686912 34.58790203 -48.4921875 29.9296875 C-48.05859375 26.50390625 -48.05859375 26.50390625 -46.2734375 24.14453125 C-44.21257875 22.61796921 -42.57999034 21.78351348 -40.18359375 20.94140625 C-35.18622986 18.64783999 -33.56224873 14.66943561 -31.28515625 9.8671875 C-30.05859375 7.50390625 -30.05859375 7.50390625 -28.05859375 6.50390625 C-25.6635797 6.39964929 -23.26746068 6.32014344 -20.87109375 6.25390625 C-14.54248393 5.98616609 -14.54248393 5.98616609 -9.12109375 2.94140625 C-5.7106781 0.22699379 -4.21527583 -0.2479574 0 0 Z " fill="#109138" transform="translate(66.05859375,11.49609375)"/>
<path d="M0 0 C7.74589507 5.75925359 11.52574696 14.6438591 13.1328125 23.87109375 C14.33631933 33.91703273 11.13727409 42.60648781 5.14453125 50.609375 C-1.20140021 57.74392707 -9.44008114 61.18156313 -18.81640625 62.1875 C-28.55055917 62.57387483 -36.47448925 59.73195052 -44.05078125 53.625 C-51.56680582 46.36759133 -54.85735976 37.28656409 -55.3671875 26.99609375 C-55.12158829 17.92061808 -51.44248338 9.14751255 -44.8671875 2.87109375 C-30.72367844 -8.12338066 -15.6826844 -9.48179036 0 0 Z " fill="#20BE55" transform="translate(84.8671875,36.12890625)"/>
<path d="M0 0 C1.11761719 0.34224609 1.11761719 0.34224609 2.2578125 0.69140625 C1.36745948 6.15811301 -2.71797384 9.18048208 -6.4921875 12.94140625 C-7.20890625 13.68648437 -7.925625 14.4315625 -8.6640625 15.19921875 C-9.7159375 16.25496094 -9.7159375 16.25496094 -10.7890625 17.33203125 C-11.42682617 17.97688477 -12.06458984 18.62173828 -12.72167969 19.28613281 C-15.27849315 21.06440955 -16.68669717 21.1176105 -19.7421875 20.69140625 C-22.453125 18.64453125 -22.453125 18.64453125 -25.1171875 15.94140625 C-26.01179688 15.0596875 -26.90640625 14.17796875 -27.828125 13.26953125 C-29.7421875 10.69140625 -29.7421875 10.69140625 -29.53125 8.36328125 C-28.7421875 6.69140625 -28.7421875 6.69140625 -26.9765625 5.9765625 C-24.7421875 5.69140625 -24.7421875 5.69140625 -22.8203125 7.125 C-22.21703125 7.78628906 -21.61375 8.44757812 -20.9921875 9.12890625 C-20.07179688 10.11697266 -20.07179688 10.11697266 -19.1328125 11.125 C-18.67390625 11.64191406 -18.215 12.15882812 -17.7421875 12.69140625 C-16.7521875 11.84578125 -15.7621875 11.00015625 -14.7421875 10.12890625 C-14.10539062 9.59007812 -13.46859375 9.05125 -12.8125 8.49609375 C-11.40088716 7.2655935 -10.02124671 5.99767078 -8.671875 4.69921875 C-7.65480469 3.73628906 -7.65480469 3.73628906 -6.6171875 2.75390625 C-5.99585937 2.14675781 -5.37453125 1.53960937 -4.734375 0.9140625 C-2.7421875 -0.30859375 -2.7421875 -0.30859375 0 0 Z " fill="#DFE8DF" transform="translate(77.7421875,52.30859375)"/>
</svg>
