<svg width="14" height="14" viewBox="0 0 14 14" fill="none" xmlns="http://www.w3.org/2000/svg">
<path fill-rule="evenodd" clip-rule="evenodd" d="M9.55073 3.44502V3.55517C10.1811 3.61281 10.8088 3.69569 11.4325 3.80361C11.4796 3.81177 11.5246 3.82912 11.565 3.85467C11.6054 3.88023 11.6403 3.91349 11.6679 3.95256C11.6954 3.99162 11.715 4.03573 11.7254 4.08236C11.7359 4.12898 11.7371 4.17722 11.729 4.22431C11.7208 4.2714 11.7035 4.31643 11.6779 4.35681C11.6524 4.3972 11.6191 4.43215 11.58 4.45968C11.541 4.48721 11.4969 4.50678 11.4502 4.51727C11.4036 4.52775 11.3554 4.52895 11.3083 4.52079L11.2069 4.50381L10.7192 10.8459C10.6911 11.2116 10.526 11.5531 10.2569 11.8023C9.98781 12.0515 9.63459 12.19 9.26784 12.19H5.46696C5.10021 12.19 4.74699 12.0515 4.47791 11.8023C4.20883 11.5531 4.04373 11.2116 4.01561 10.8459L3.52746 4.50381L3.42604 4.52079C3.37895 4.52895 3.33072 4.52775 3.28409 4.51727C3.23746 4.50678 3.19335 4.48721 3.15429 4.45968C3.07539 4.40408 3.02181 4.31942 3.00534 4.22431C2.98887 4.12921 3.01085 4.03145 3.06645 3.95256C3.12205 3.87366 3.20672 3.82008 3.30182 3.80361C3.92548 3.69556 4.55325 3.61268 5.18358 3.55517V3.44502C5.18358 2.6861 5.77218 2.03782 6.55001 2.01308C7.0948 1.99564 7.64 1.99564 8.18479 2.01308C8.96262 2.03782 9.55073 2.6861 9.55073 3.44502ZM6.57331 2.74045C7.10257 2.72352 7.63223 2.72352 8.16149 2.74045C8.52688 2.7521 8.82287 3.05974 8.82287 3.44502V3.49985C7.85329 3.44096 6.88102 3.44096 5.91144 3.49985V3.44502C5.91144 3.05974 6.20695 2.7521 6.57331 2.74045ZM6.40105 5.6252C6.3992 5.57741 6.38795 5.53045 6.36796 5.487C6.34796 5.44355 6.3196 5.40447 6.2845 5.37198C6.2494 5.33949 6.20825 5.31424 6.16339 5.29766C6.11852 5.28108 6.07084 5.27349 6.02304 5.27534C5.97525 5.27719 5.92829 5.28843 5.88485 5.30843C5.8414 5.32842 5.80232 5.35678 5.76983 5.39188C5.73734 5.42698 5.71209 5.46814 5.6955 5.513C5.67892 5.55786 5.67134 5.60555 5.67319 5.65334L5.84156 10.0205C5.8453 10.117 5.88719 10.208 5.95804 10.2735C5.99311 10.306 6.03424 10.3312 6.07908 10.3478C6.12391 10.3644 6.17156 10.372 6.21932 10.3701C6.26708 10.3683 6.31401 10.357 6.35743 10.337C6.40085 10.3171 6.4399 10.2887 6.47237 10.2536C6.50483 10.2186 6.53007 10.1774 6.54664 10.1326C6.56321 10.0878 6.57079 10.0401 6.56894 9.99235L6.40105 5.6252ZM9.06016 5.65334C9.06371 5.60463 9.05743 5.5557 9.04168 5.50947C9.02593 5.46324 9.00104 5.42065 8.96848 5.38425C8.93593 5.34784 8.89638 5.31836 8.85219 5.29756C8.808 5.27676 8.76008 5.26506 8.71127 5.26317C8.66247 5.26128 8.61379 5.26924 8.56812 5.28656C8.52246 5.30388 8.48075 5.33022 8.44547 5.364C8.4102 5.39778 8.38209 5.43831 8.36281 5.48319C8.34353 5.52806 8.33349 5.57636 8.33327 5.6252L8.16489 9.99235C8.16116 10.0889 8.19592 10.1829 8.26153 10.2538C8.32714 10.3247 8.41823 10.3666 8.51475 10.3704C8.61127 10.3741 8.70532 10.3393 8.77621 10.2737C8.8471 10.2081 8.88902 10.117 8.89275 10.0205L9.06016 5.65334Z" fill="black"/>
</svg>
