<svg width="14" height="14" viewBox="0 0 14 14" fill="none" xmlns="http://www.w3.org/2000/svg">
<path d="M8.74283 5.52749L8.56202 10.2304M6.06005 10.2304L5.87925 5.52749M11.088 3.8501C11.2667 3.87727 11.4444 3.90601 11.6221 3.93684M11.088 3.8501L10.5299 11.1047C10.5072 11.4 10.3737 11.6759 10.1563 11.8771C9.93893 12.0783 9.65358 12.1901 9.35735 12.19H5.26473C4.9685 12.1901 4.68315 12.0783 4.46574 11.8771C4.24834 11.6759 4.11491 11.4 4.09213 11.1047L3.53405 3.8501M11.088 3.8501C10.4849 3.75892 9.87873 3.68973 9.2706 3.64265M3.53405 3.8501C3.35533 3.87675 3.17767 3.90549 3 3.93632M3.53405 3.8501C4.13714 3.75892 4.74335 3.68973 5.35148 3.64265M9.2706 3.64265V3.16399C9.2706 2.54738 8.79508 2.03319 8.17847 2.01386C7.60033 1.99538 7.02175 1.99538 6.44361 2.01386C5.827 2.03319 5.35148 2.5479 5.35148 3.16399V3.64265M9.2706 3.64265C7.96617 3.54184 6.65591 3.54184 5.35148 3.64265" stroke="black" stroke-linecap="round" stroke-linejoin="round"/>
</svg>
