<svg width="14" height="14" viewBox="0 0 14 14" fill="none" xmlns="http://www.w3.org/2000/svg">
<path fill-rule="evenodd" clip-rule="evenodd" d="M3.49917 1.19168C5.70066 0.936106 7.92434 0.936106 10.1258 1.19168C10.9991 1.29318 11.625 2.04335 11.625 2.90085V11.9384C11.6249 12.0129 11.6058 12.0862 11.5694 12.1512C11.5331 12.2163 11.4808 12.2709 11.4174 12.3101C11.354 12.3492 11.2816 12.3715 11.2072 12.3749C11.1328 12.3782 11.0587 12.3625 10.9921 12.3293L6.8125 10.2404L2.63292 12.3304C2.56617 12.3638 2.49202 12.3795 2.41749 12.376C2.34297 12.3726 2.27056 12.3502 2.20714 12.3109C2.14372 12.2717 2.09139 12.2168 2.05514 12.1516C2.01888 12.0864 1.9999 12.013 2 11.9384V2.90085C2 2.04335 2.62592 1.29318 3.49917 1.19168Z" fill="black"/>
</svg>
