<svg width="64" height="64" viewBox="0 0 64 64" fill="none" xmlns="http://www.w3.org/2000/svg">
<g clip-path="url(#clip0_355_1125)">
<path d="M54.9 39.7L62.2 47.2999L30.1 63.4C30.1 63.4 25.9 65.5 23.9 62.2C15.9 49.2 54.9 39.7 54.9 39.7Z" fill="#256382"/>
<path d="M29.2001 53.9001C29.2001 53.9001 23.1001 56.2 24.2001 60.5C25.4001 65 30.3001 62.3 30.3001 62.3L60.8001 47.3C60.8001 47.3 59.1001 42.5 62.2001 39.3L29.2001 53.9001Z" fill="#D9E3E8"/>
<path d="M34.4 8.8999L63.6 38.9999L29.1 53.2999L7 16.6999L34.4 8.8999Z" fill="#42ADE2"/>
<path d="M60.6999 42.5999L40.2999 51.4L60.2999 41.7L60.6999 42.5999ZM60.3999 45.2L38.6999 54.7L59.9999 44.2999L60.3999 45.2ZM60.5999 46.7L32.8999 59.4L60.1999 45.7999L60.5999 46.7Z" fill="#94989B"/>
<path d="M23.8 62.1001C20.4 54.6001 29.1 53.3001 29.1 53.3001L7 16.7001C7 16.7001 2 16.6001 2 22.1001C2 24.4001 3 26.1001 3 26.1001L23.8 62.1001Z" fill="#428BC1"/>
<path d="M8.6999 32.2L1.3999 39.7999L33.4999 55.9C33.4999 55.9 37.6999 58 39.6999 54.7C47.6999 41.7 8.6999 32.2 8.6999 32.2Z" fill="#547725"/>
<path d="M34.2999 46.4001C34.2999 46.4001 40.3999 48.7 39.2999 53C38.0999 57.5 33.2999 54.8 33.2999 54.8L2.7999 39.8C2.7999 39.8 4.4999 35 1.3999 31.8L34.2999 46.4001Z" fill="#D9E3E8"/>
<path d="M29.2 1.3999L0 31.4999L34.5 45.7999L56.6 9.1999L29.2 1.3999Z" fill="#83BF4F"/>
<path d="M3.1998 34.2L23.1998 43.9L2.7998 35.0999L3.1998 34.2ZM3.5998 36.7999L24.7998 47.2L3.0998 37.7L3.5998 36.7999ZM3.3998 38.2999L30.5998 51.9L2.8998 39.2L3.3998 38.2999Z" fill="#94989B"/>
<path d="M39.8 54.6001C43.2 47.1001 34.5 45.8001 34.5 45.8001L56.6 9.20007C56.6 9.20007 61.6 9.10007 61.6 14.6001C61.6 16.9001 60.6 18.6001 60.6 18.6001L39.8 54.6001Z" fill="#699635"/>
<path d="M56.7 26L62.8 32.4L35.7 45.9C35.7 45.9 32.1 47.6 30.4 44.9C23.8 34 56.7 26 56.7 26Z" fill="#962C2C"/>
<path d="M35.0001 38C35.0001 38 29.8001 39.8999 30.8001 43.5999C31.8001 47.3999 35.9001 45.0999 35.9001 45.0999L61.6001 32.4C61.6001 32.4 60.2001 28.4 62.8001 25.7L35.0001 38Z" fill="#D9E3E8"/>
<path d="M39.4002 0L64.0002 25.4L34.9002 37.5L16.2002 6.6L39.4002 0Z" fill="#ED4C5C"/>
<path d="M40.1 5.80005L44.9 11.1L27.2 17.8L23 11L40.1 5.80005Z" fill="white"/>
<path d="M61.6002 28.5001L44.4002 35.8001L61.2002 27.6001L61.6002 28.5001ZM61.4002 30.7001L43.0002 38.6001L61.0002 29.8001L61.4002 30.7001ZM61.6002 31.9001L38.2002 42.6001L61.1002 31.0001L61.6002 31.9001Z" fill="#94989B"/>
<path d="M30.4999 44.9C27.6999 38.6 34.9999 37.5 34.9999 37.5L16.1999 6.60003C16.1999 6.60003 11.8999 6.50003 11.8999 11.1C11.8999 13 12.6999 14.5 12.6999 14.5L30.4999 44.9Z" fill="#C94747"/>
</g>
<defs>
<clipPath id="clip0_355_1125">
<rect width="64" height="64" fill="white"/>
</clipPath>
</defs>
</svg>
