<svg width="15" height="15" viewBox="0 0 15 15" fill="none" xmlns="http://www.w3.org/2000/svg">
<path d="M3.74384 3.08059C3.83162 3.16848 3.88093 3.28762 3.88093 3.41184C3.88093 3.53606 3.83162 3.6552 3.74384 3.74309C3.25051 4.2364 2.85918 4.82206 2.59219 5.46661C2.3252 6.11116 2.18778 6.80199 2.18778 7.49965C2.18778 8.19731 2.3252 8.88814 2.59219 9.5327C2.85918 10.1772 3.25051 10.7629 3.74384 11.2562C3.82918 11.3447 3.87638 11.4631 3.87525 11.586C3.87413 11.7089 3.82477 11.8264 3.73782 11.9133C3.65087 12.0002 3.53328 12.0494 3.41037 12.0504C3.28747 12.0514 3.16908 12.0041 3.08071 11.9187C0.640088 9.47809 0.640088 5.52121 3.08071 3.08059C3.1686 2.99281 3.28774 2.9435 3.41196 2.9435C3.53618 2.9435 3.65595 2.99281 3.74384 3.08059ZM11.9188 3.08059C14.3595 5.52121 14.3595 9.47871 11.9188 11.9193C11.83 12.0021 11.7124 12.0472 11.591 12.0451C11.4696 12.0429 11.3537 11.9937 11.2678 11.9079C11.1819 11.822 11.1327 11.7061 11.1306 11.5847C11.1285 11.4632 11.1735 11.3457 11.2563 11.2568C11.7498 10.7635 12.1412 10.1778 12.4082 9.53321C12.6753 8.8886 12.8127 8.1977 12.8127 7.49996C12.8127 6.80223 12.6753 6.11133 12.4082 5.46672C12.1412 4.82211 11.7498 4.23641 11.2563 3.74309C11.2103 3.70018 11.1733 3.64843 11.1477 3.59093C11.1221 3.53343 11.1083 3.47136 11.1072 3.40842C11.1061 3.34548 11.1177 3.28296 11.1413 3.22459C11.1648 3.16622 11.1999 3.1132 11.2444 3.06869C11.2889 3.02418 11.342 2.98909 11.4003 2.96551C11.4587 2.94194 11.5212 2.93036 11.5842 2.93147C11.6471 2.93258 11.7092 2.94636 11.7667 2.97198C11.8242 2.9976 11.8759 3.03453 11.9188 3.08059ZM5.51134 4.84809C5.59912 4.93598 5.64843 5.05512 5.64843 5.17934C5.64843 5.30356 5.59912 5.4227 5.51134 5.51059C5.25008 5.77177 5.04283 6.08185 4.90143 6.42314C4.76003 6.76443 4.68725 7.13023 4.68725 7.49965C4.68725 7.86907 4.76003 8.23487 4.90143 8.57616C5.04283 8.91745 5.25008 9.22754 5.51134 9.48871C5.59414 9.57757 5.63921 9.6951 5.63707 9.81654C5.63493 9.93798 5.58573 10.0538 5.49985 10.1397C5.41397 10.2256 5.2981 10.2748 5.17666 10.2769C5.05523 10.2791 4.9377 10.234 4.84884 10.1512C4.14563 9.44796 3.75058 8.49417 3.75058 7.49965C3.75058 6.50513 4.14563 5.55134 4.84884 4.84809C4.93673 4.76031 5.05587 4.711 5.18009 4.711C5.30431 4.711 5.42345 4.76031 5.51134 4.84809ZM10.152 4.84809C10.8552 5.55134 11.2502 6.50513 11.2502 7.49965C11.2502 8.49417 10.8552 9.44796 10.152 10.1512C10.1087 10.196 10.057 10.2317 9.99986 10.2563C9.94268 10.2809 9.88118 10.2939 9.81894 10.2945C9.7567 10.295 9.69497 10.2832 9.63735 10.2597C9.57973 10.2361 9.52738 10.2013 9.48335 10.1573C9.43931 10.1133 9.40448 10.061 9.38089 10.0034C9.35729 9.94583 9.3454 9.88411 9.34591 9.82187C9.34642 9.75963 9.35932 9.69812 9.38386 9.64092C9.4084 9.58372 9.44409 9.53198 9.48884 9.48871C9.75001 9.22755 9.95718 8.9175 10.0985 8.57627C10.2399 8.23504 10.3126 7.86931 10.3126 7.49996C10.3126 7.13062 10.2399 6.76489 10.0985 6.42366C9.95718 6.08243 9.75001 5.77238 9.48884 5.51121C9.40604 5.42235 9.36096 5.30483 9.3631 5.18339C9.36525 5.06195 9.41444 4.94608 9.50032 4.8602C9.58621 4.77432 9.70207 4.72512 9.82351 4.72298C9.94495 4.72084 10.0625 4.76591 10.1513 4.84871M7.50009 6.56246C7.74873 6.56246 7.98719 6.66124 8.163 6.83705C8.33882 7.01287 8.43759 7.25132 8.43759 7.49996C8.43759 7.7486 8.33882 7.98706 8.163 8.16288C7.98719 8.33869 7.74873 8.43746 7.50009 8.43746C7.25145 8.43746 7.01299 8.33869 6.83718 8.16288C6.66136 7.98706 6.56259 7.7486 6.56259 7.49996C6.56259 7.25132 6.66136 7.01287 6.83718 6.83705C7.01299 6.66124 7.25145 6.56246 7.50009 6.56246Z" fill="black"/>
</svg>
