<svg width="16" height="16" viewBox="0 0 16 16" fill="none" xmlns="http://www.w3.org/2000/svg">
<path d="M4.6665 7.66667V9.33333M4.6665 7.66667V3.66667C4.6665 3.40145 4.77186 3.1471 4.9594 2.95956C5.14693 2.77202 5.40129 2.66667 5.6665 2.66667C5.93172 2.66667 6.18607 2.77202 6.37361 2.95956C6.56115 3.1471 6.6665 3.40145 6.6665 3.66667M4.6665 7.66667C4.6665 7.40145 4.56115 7.1471 4.37361 6.95956C4.18607 6.77202 3.93172 6.66667 3.6665 6.66667C3.40129 6.66667 3.14693 6.77202 2.9594 6.95956C2.77186 7.1471 2.6665 7.40145 2.6665 7.66667V9C2.6665 10.3261 3.19329 11.5979 4.13097 12.5355C5.06865 13.4732 6.34042 14 7.6665 14C8.99259 14 10.2644 13.4732 11.202 12.5355C12.1397 11.5979 12.6665 10.3261 12.6665 9V5.66667C12.6665 5.40145 12.5611 5.1471 12.3736 4.95956C12.1861 4.77202 11.9317 4.66667 11.6665 4.66667C11.4013 4.66667 11.1469 4.77202 10.9594 4.95956C10.7719 5.1471 10.6665 5.40145 10.6665 5.66667M6.6665 3.66667V7.33333M6.6665 3.66667V3C6.6665 2.73478 6.77186 2.48043 6.9594 2.29289C7.14693 2.10536 7.40129 2 7.6665 2C7.93172 2 8.18607 2.10536 8.37361 2.29289C8.56115 2.48043 8.6665 2.73478 8.6665 3V3.66667M10.6665 5.66667V3.66667C10.6665 3.40145 10.5611 3.1471 10.3736 2.95956C10.1861 2.77202 9.93172 2.66667 9.6665 2.66667C9.40129 2.66667 9.14693 2.77202 8.9594 2.95956C8.77186 3.1471 8.6665 3.40145 8.6665 3.66667M10.6665 5.66667V7.33333M8.6665 3.66667V7.33333" stroke="black" stroke-linecap="round" stroke-linejoin="round"/>
</svg>
