<svg width="16" height="16" viewBox="0 0 16 16" fill="none" xmlns="http://www.w3.org/2000/svg">
<g clip-path="url(#clip0_433_1111)">
<path d="M7.99991 9.3375L3.89591 14.1555C3.76539 14.3074 3.6049 14.4307 3.4245 14.5177C3.2441 14.6048 3.04767 14.6536 2.84753 14.6611C2.64739 14.6687 2.44784 14.6349 2.26138 14.5617C2.07492 14.4886 1.90558 14.3777 1.76395 14.2361C1.62233 14.0945 1.51148 13.9252 1.43834 13.7387C1.3652 13.5522 1.33136 13.3527 1.33893 13.1525C1.3465 12.9524 1.39532 12.756 1.48233 12.5756C1.56934 12.3952 1.69266 12.2347 1.84458 12.1042L6.66258 8.00016M14.6666 7.93683L10.6032 12.0002M8.06325 1.3335L3.99991 5.39683M7.55525 1.8415L4.50791 4.88883C4.50791 4.88883 6.03191 6.92083 7.55525 8.44483C9.07925 9.96816 11.1112 11.4922 11.1112 11.4922L14.1586 8.44483C14.1586 8.44483 12.6346 6.41283 11.1112 4.88883C9.58725 3.3655 7.55525 1.8415 7.55525 1.8415Z" stroke="black" stroke-linecap="round" stroke-linejoin="round"/>
</g>
<defs>
<clipPath id="clip0_433_1111">
<rect width="16" height="16" fill="white"/>
</clipPath>
</defs>
</svg>
