<svg width="16" height="16" viewBox="0 0 16 16" fill="none" xmlns="http://www.w3.org/2000/svg">
<path d="M12.2567 14H10.372C10.2769 14 10.1976 13.9682 10.134 13.9046C10.0704 13.8411 10.0387 13.7617 10.0387 13.6666C10.0387 13.5715 10.0704 13.4922 10.134 13.4286C10.1976 13.3651 10.2769 13.3333 10.372 13.3333H12.256C12.3587 13.3333 12.4529 13.2906 12.5387 13.2053C12.6244 13.12 12.6671 13.0257 12.6667 12.9226V7.07729H3.33334V9.33329C3.33334 9.4284 3.30156 9.50773 3.238 9.57129C3.17445 9.63484 3.09512 9.66662 3 9.66662C2.90489 9.66662 2.82556 9.63484 2.762 9.57129C2.69845 9.50773 2.66667 9.4284 2.66667 9.33329V4.41062C2.66667 4.10351 2.76956 3.84729 2.97534 3.64195C3.18112 3.43662 3.43734 3.33373 3.744 3.33329H4.92334V2.20529C4.92334 2.10173 4.95734 2.01595 5.02534 1.94795C5.09334 1.87995 5.17889 1.84595 5.282 1.84595C5.38512 1.84595 5.47089 1.87995 5.53934 1.94795C5.60778 2.01595 5.64178 2.10173 5.64134 2.20529V3.33329H10.4107V2.17995C10.4107 2.08484 10.4424 2.00529 10.506 1.94129C10.5696 1.87729 10.6489 1.84551 10.744 1.84595C10.8391 1.8464 10.9182 1.87817 10.9813 1.94129C11.0444 2.0044 11.0764 2.08373 11.0773 2.17929V3.33329H12.2567C12.5633 3.33329 12.8196 3.43617 13.0253 3.64195C13.2311 3.84773 13.3338 4.10395 13.3333 4.41062V12.9233C13.3333 13.23 13.2307 13.4862 13.0253 13.692C12.82 13.8977 12.5642 14.0004 12.2567 14ZM6.91134 13H1.33334C1.23867 13 1.15934 12.9682 1.09534 12.9046C1.03134 12.8411 0.99956 12.7617 1 12.6666C1.00045 12.5715 1.03223 12.4922 1.09534 12.4286C1.15845 12.3651 1.23778 12.3333 1.33334 12.3333H6.91134L5.098 10.49C5.03534 10.4277 5.00334 10.354 5.002 10.2686C5.00067 10.1837 5.03245 10.1088 5.09734 10.044C5.15956 9.98129 5.23623 9.94995 5.32734 9.94995C5.41756 9.94995 5.494 9.98106 5.55667 10.0433L7.81534 12.29C7.92334 12.3975 7.97734 12.5231 7.97734 12.6666C7.97734 12.8102 7.92334 12.936 7.81534 13.044L5.556 15.3026C5.49378 15.3648 5.41823 15.3944 5.32934 15.3913C5.24045 15.3882 5.16312 15.3542 5.09734 15.2893C5.03512 15.2271 5.004 15.1528 5.004 15.0666C5.004 14.9804 5.03512 14.9062 5.09734 14.844L6.91134 13ZM3.33334 6.40995H12.6667V4.40995C12.6667 4.30773 12.624 4.21373 12.5387 4.12795C12.4533 4.04217 12.3591 3.99951 12.256 3.99995H3.744C3.64134 3.99995 3.54712 4.04262 3.46134 4.12795C3.37556 4.21329 3.33289 4.30751 3.33334 4.41062V6.40995Z" fill="black"/>
</svg>
