<svg width="100" height="100" viewBox="0 0 100 100" fill="none" xmlns="http://www.w3.org/2000/svg">
<g clip-path="url(#clip0_216_1242)">
<path d="M88.1849 62.5599C82.6609 77.4159 67.8849 86.8399 52.4629 88.3179C51.8929 88.3739 51.3189 88.4159 50.7469 88.4499C50.1189 88.4859 49.4889 88.5079 48.8589 88.5179C38.1949 88.6879 27.4869 85.1699 19.0049 78.7019C18.7149 78.4799 18.4309 78.2559 18.1509 78.0259C17.0449 77.1239 16.0209 76.1719 15.0769 75.1739C8.44491 68.1599 5.76891 58.8619 6.50691 48.8879C6.99291 42.3219 10.6549 36.3159 15.8349 32.3539C17.2269 31.2899 18.7369 30.4559 20.3029 29.7379C21.4829 29.1959 22.7009 28.7219 23.9229 28.2659C24.1329 28.1859 24.3429 28.1079 24.5529 28.0299C25.0269 27.8539 25.5009 27.6799 25.9749 27.5059C26.0649 27.4719 26.1549 27.4399 26.2429 27.4059C26.3769 27.3559 26.5109 27.3079 26.6429 27.2579C26.6849 27.2419 26.7249 27.2259 26.7649 27.2119C27.2429 27.0319 27.7189 26.8499 28.1909 26.6619C28.3249 26.6099 28.4569 26.5559 28.5889 26.5019C29.2709 26.2259 29.9449 25.9339 30.6049 25.6199C30.6549 25.5979 30.7029 25.5759 30.7509 25.5519C31.2729 25.2999 31.7849 25.0339 32.2889 24.7499C32.4349 24.6679 32.5789 24.5839 32.7229 24.4999C32.9989 24.3359 33.2689 24.1659 33.5369 23.9899C33.5389 23.9879 33.5389 23.9879 33.5369 23.9879C33.8649 23.7739 34.1869 23.5479 34.5029 23.3099C34.5069 23.3059 34.5129 23.3039 34.5169 23.2999C34.5969 23.2379 34.6769 23.1779 34.7569 23.1179C35.0109 22.9239 35.2649 22.7299 35.5209 22.5359C35.7609 22.3519 36.0009 22.1679 36.2409 21.9839C36.4089 21.8539 36.5789 21.7239 36.7469 21.5939C40.1469 18.9799 43.6229 16.3099 47.4109 14.3919C55.9149 10.0839 66.3229 10.6279 74.5589 15.4979C81.7089 19.7259 86.6129 26.8399 89.0189 34.7019C91.7729 43.7119 91.4689 53.7299 88.1849 62.5599Z" fill="#DAF0FD"/>
<path d="M16.7708 25.1734C17.4201 25.1734 17.9466 24.647 17.9466 23.9976C17.9466 23.3482 17.4201 22.8218 16.7708 22.8218C16.1214 22.8218 15.595 23.3482 15.595 23.9976C15.595 24.647 16.1214 25.1734 16.7708 25.1734Z" stroke="#0F1109" stroke-width="0.25" stroke-miterlimit="10" stroke-linecap="round"/>
<path d="M57.7053 82.5061C58.3547 82.5061 58.8811 81.9797 58.8811 81.3303C58.8811 80.681 58.3547 80.1545 57.7053 80.1545C57.056 80.1545 56.5295 80.681 56.5295 81.3303C56.5295 81.9797 57.056 82.5061 57.7053 82.5061Z" stroke="#0F1109" stroke-width="0.25" stroke-miterlimit="10" stroke-linecap="round"/>
<path d="M82.7122 16.055C83.3616 16.055 83.888 15.5285 83.888 14.8792C83.888 14.2298 83.3616 13.7034 82.7122 13.7034C82.0628 13.7034 81.5364 14.2298 81.5364 14.8792C81.5364 15.5285 82.0628 16.055 82.7122 16.055Z" stroke="#0F1109" stroke-width="0.25" stroke-miterlimit="10" stroke-linecap="round"/>
<path d="M40.9541 11.7976C40.7267 12.6212 40.5423 12.8056 39.7185 13.0332C40.5421 13.2606 40.7265 13.445 40.9541 14.2688C41.1815 13.4452 41.3659 13.2608 42.1897 13.0332C41.3661 12.8056 41.1817 12.6212 40.9541 11.7976Z" fill="#F1D156"/>
<path d="M36.4066 14.1885C36.1002 15.2979 35.8518 15.5463 34.7424 15.8527C35.8518 16.1591 36.1002 16.4075 36.4066 17.5169C36.713 16.4075 36.9614 16.1591 38.0708 15.8527C36.9614 15.5463 36.713 15.2979 36.4066 14.1885Z" fill="#F1D156"/>
<path d="M80.4191 78.1035C80.1127 79.2129 79.8643 79.4613 78.7549 79.7677C79.8643 80.0741 80.1127 80.3225 80.4191 81.4319C80.7255 80.3225 80.9739 80.0741 82.0833 79.7677C80.9737 79.4613 80.7255 79.2131 80.4191 78.1035Z" fill="#F1D156"/>
<path d="M36.3225 10.2964C36.1567 10.8966 36.0223 11.031 35.4221 11.1968C36.0223 11.3626 36.1567 11.497 36.3225 12.0972C36.4883 11.497 36.6227 11.3626 37.2229 11.1968C36.6227 11.031 36.4883 10.8966 36.3225 10.2964Z" fill="#F1D156"/>
<path d="M85.5964 74.1621C85.4306 74.7623 85.2962 74.8967 84.696 75.0625C85.2964 75.2283 85.4306 75.3627 85.5964 75.9629C85.7622 75.3627 85.8966 75.2283 86.4968 75.0625C85.8966 74.8967 85.7622 74.7623 85.5964 74.1621Z" fill="#F1D156"/>
<path d="M21.2559 32.5408C21.0901 33.141 20.9557 33.2754 20.3555 33.4412C20.9559 33.607 21.0901 33.7414 21.2559 34.3416C21.4217 33.7414 21.5561 33.607 22.1563 33.4412C21.5561 33.2754 21.4217 33.141 21.2559 32.5408Z" fill="white"/>
<path d="M59.261 31.1636C59.0952 31.764 58.9608 31.8982 58.3606 32.064C58.9608 32.2298 59.0952 32.3642 59.261 32.9644C59.4268 32.3642 59.5612 32.2298 60.1614 32.064C59.5612 31.8982 59.4268 31.7638 59.261 31.1636Z" fill="white"/>
<path d="M72.4475 67.0708C72.2817 67.671 72.1473 67.8054 71.5471 67.9712C72.1473 68.137 72.2817 68.2714 72.4475 68.8716C72.6133 68.2714 72.7477 68.137 73.3479 67.9712C72.7477 67.8056 72.6133 67.6712 72.4475 67.0708Z" fill="white"/>
<path d="M74.2788 74.8594C74.7504 74.8594 74.7504 75.6086 75.222 75.6086C75.6938 75.6086 75.6938 74.8594 76.1656 74.8594C76.6374 74.8594 76.6374 75.6086 77.1092 75.6086C77.581 75.6086 77.581 74.8594 78.0528 74.8594C78.5246 74.8594 78.5246 75.6086 78.9966 75.6086C79.4682 75.6086 79.4682 74.8594 79.9398 74.8594C80.4118 74.8594 80.4118 75.6086 80.884 75.6086C81.3564 75.6086 81.3564 74.8594 81.8288 74.8594C82.3012 74.8594 82.3012 75.6086 82.7736 75.6086" stroke="#43434D" stroke-width="0.25" stroke-miterlimit="10" stroke-linecap="round"/>
<path d="M15.2822 13.4167C15.7538 13.4167 15.7538 14.1659 16.2254 14.1659C16.6972 14.1659 16.6972 13.4167 17.169 13.4167C17.6408 13.4167 17.6408 14.1659 18.1126 14.1659C18.5844 14.1659 18.5844 13.4167 19.0562 13.4167C19.5282 13.4167 19.5282 14.1659 20 14.1659C20.4716 14.1659 20.4716 13.4167 20.9432 13.4167C21.4152 13.4167 21.4152 14.1659 21.8874 14.1659C22.3598 14.1659 22.3598 13.4167 22.8322 13.4167C23.3046 13.4167 23.3046 14.1659 23.777 14.1659" stroke="#43434D" stroke-width="0.25" stroke-miterlimit="10" stroke-linecap="round"/>
<path d="M44.5479 32.9529C45.0195 32.9529 45.0195 33.7021 45.4911 33.7021C45.9629 33.7021 45.9629 32.9529 46.4347 32.9529C46.9065 32.9529 46.9065 33.7021 47.3783 33.7021C47.8501 33.7021 47.8501 32.9529 48.3219 32.9529C48.7939 32.9529 48.7939 33.7021 49.2657 33.7021C49.7373 33.7021 49.7373 32.9529 50.2091 32.9529C50.6811 32.9529 50.6811 33.7021 51.1533 33.7021C51.6257 33.7021 51.6256 32.9529 52.098 32.9529C52.5704 32.9529 52.5704 33.7021 53.0428 33.7021" stroke="#43434D" stroke-width="0.25" stroke-miterlimit="10" stroke-linecap="round"/>
<path d="M49.5229 35.2073C49.9945 35.2073 49.9945 35.9563 50.4661 35.9563C50.9379 35.9563 50.938 35.2073 51.4098 35.2073C51.8816 35.2073 51.8815 35.9563 52.3533 35.9563C52.8251 35.9563 52.8251 35.2073 53.2969 35.2073C53.7687 35.2073 53.7688 35.9563 54.2408 35.9563C54.7124 35.9563 54.7124 35.2073 55.184 35.2073C55.656 35.2073 55.6559 35.9563 56.1281 35.9563C56.6005 35.9563 56.6005 35.2073 57.0729 35.2073C57.5453 35.2073 57.5453 35.9563 58.0177 35.9563" stroke="#43434D" stroke-width="0.25" stroke-miterlimit="10" stroke-linecap="round"/>
<path d="M10.9985 15.2764C11.4799 15.2764 11.4799 16.0764 11.9613 16.0764C12.4429 16.0764 12.4429 15.2764 12.9245 15.2764C13.4059 15.2764 13.4059 16.0764 13.8875 16.0764C14.3691 16.0764 14.3691 15.2764 14.8507 15.2764C15.3323 15.2764 15.3323 16.0764 15.8141 16.0764C16.2957 16.0764 16.2957 15.2764 16.7773 15.2764C17.2585 15.2764 17.2585 16.0764 17.7395 16.0764C18.2211 16.0764 18.2211 15.2764 18.7027 15.2764C19.1839 15.2764 19.1839 16.0764 19.6653 16.0764C20.1469 16.0764 20.1469 15.2764 20.6283 15.2764C21.1101 15.2764 21.1101 16.0764 21.5917 16.0764C22.0733 16.0764 22.0735 15.2764 22.5551 15.2764C23.0369 15.2764 23.0369 16.0764 23.5185 16.0764C24.0001 16.0764 24.0001 15.2764 24.4817 15.2764C24.9633 15.2764 24.9633 16.0764 25.4451 16.0764C25.9271 16.0764 25.9271 15.2764 26.4093 15.2764C26.8917 15.2764 26.8917 16.0764 27.3741 16.0764C27.8565 16.0764 27.8565 15.2764 28.3389 15.2764" stroke="#43434D" stroke-width="0.25" stroke-miterlimit="10" stroke-linecap="round"/>
<path d="M62.3157 66.8043C62.8085 66.5959 63.3505 66.4805 63.9191 66.4805C64.8039 66.4805 65.6237 66.7595 66.2949 67.2343" stroke="#43434D" stroke-width="0.25" stroke-miterlimit="10" stroke-linecap="round"/>
<path d="M60.649 73.1054C60.1164 72.4112 59.7998 71.5426 59.7998 70.5998C59.7998 69.8784 59.9852 69.2004 60.311 68.6108" stroke="#43434D" stroke-width="0.25" stroke-miterlimit="10" stroke-linecap="round"/>
<path d="M68.0386 70.6C68.0386 69.6904 67.7438 68.8496 67.2444 68.168" stroke="#43434D" stroke-width="0.25" stroke-miterlimit="10" stroke-linecap="round"/>
<path d="M61.5647 73.9807C62.2321 74.4463 63.0437 74.7195 63.9193 74.7195C65.3793 74.7195 66.6619 73.9599 67.3937 72.8145" stroke="#43434D" stroke-width="0.25" stroke-miterlimit="10" stroke-linecap="round"/>
<path d="M60.6554 72.3396L60.7472 73.2882L59.8752 72.8324" stroke="#43434D" stroke-width="0.25" stroke-miterlimit="10" stroke-linecap="round" stroke-linejoin="round"/>
<path d="M67.1848 68.92L67.093 67.9714L67.9652 68.4272" stroke="#43434D" stroke-width="0.25" stroke-miterlimit="10" stroke-linecap="round" stroke-linejoin="round"/>
<path d="M69.4151 75.3875L61.2299 95.7328C61.14 95.9574 61.0165 96.1258 60.8593 96.2381C60.7021 96.3503 60.5225 96.4065 60.3204 96.4065C60.006 96.4065 59.7702 96.3279 59.613 96.1707C59.4558 95.991 59.366 95.7777 59.3435 95.5307C59.3211 95.4184 59.3323 95.2837 59.3772 95.1265L68.2699 73.3665C68.3821 73.1195 68.5169 72.9511 68.6741 72.8612C68.8537 72.7489 69.0558 72.6928 69.2804 72.6928C69.5049 72.6928 69.6958 72.7602 69.853 72.8949C70.0327 73.0072 70.1674 73.1644 70.2572 73.3665L79.1162 95.0254C79.1611 95.1602 79.1835 95.2949 79.1835 95.4296C79.1835 95.744 79.0825 95.991 78.8804 96.1707C78.6783 96.3279 78.4425 96.4065 78.173 96.4065C77.9484 96.4065 77.7463 96.3503 77.5667 96.2381C77.4095 96.1033 77.286 95.9349 77.1962 95.7328L68.8088 75.2528L69.4151 75.3875ZM63.1835 89.5686L64.0256 87.5812H74.4677L74.872 89.5686H63.1835Z" fill="#E06F5B"/>
<path d="M84.8275 79.8547C85.1643 79.8547 85.4338 79.9557 85.6359 80.1578C85.838 80.3599 85.9391 80.5957 85.9391 80.8652C85.9391 81.0897 85.8717 81.2918 85.7369 81.4715L70.4106 101.783L70.3433 101.514H84.7938C85.0633 101.514 85.2991 101.603 85.5012 101.783C85.7033 101.963 85.8043 102.187 85.8043 102.457C85.8043 102.726 85.7033 102.962 85.5012 103.164C85.2991 103.344 85.0633 103.434 84.7938 103.434H68.6591C68.3447 103.434 68.0864 103.321 67.8843 103.097C67.7047 102.872 67.6148 102.636 67.6148 102.389C67.6148 102.165 67.6822 101.963 67.817 101.783L83.0759 81.6399L83.278 81.7747H69.5012C69.2092 81.7747 68.9622 81.6848 68.7601 81.5052C68.5805 81.3031 68.4906 81.0673 68.4906 80.7978C68.4906 80.5283 68.5805 80.3038 68.7601 80.1241C68.9622 79.9445 69.2092 79.8547 69.5012 79.8547H84.8275Z" fill="#E06F5B"/>
<path d="M70.8771 54.7214H60.2899C59.3749 54.7214 58.6333 53.9796 58.6333 53.0648C58.6333 52.1498 59.3751 51.4082 60.2899 51.4082H70.8771C71.7921 51.4082 72.5337 52.15 72.5337 53.0648C72.5337 53.9796 71.7921 54.7214 70.8771 54.7214Z" fill="white"/>
<path d="M60.9005 52.5217L59.8147 53.6075" stroke="#E06F5B" stroke-width="0.25" stroke-miterlimit="10" stroke-linecap="round"/>
<path d="M59.8147 52.5217L60.9005 53.6075" stroke="#E06F5B" stroke-width="0.25" stroke-miterlimit="10" stroke-linecap="round"/>
<path d="M77.3481 58.8525H69.8331C68.9181 58.8525 68.1765 58.1107 68.1765 57.1959C68.1765 56.2809 68.9183 55.5393 69.8331 55.5393H77.3481C78.2631 55.5393 79.0047 56.2811 79.0047 57.1959C79.0047 58.1109 78.2629 58.8525 77.3481 58.8525Z" fill="white"/>
<path d="M70.4435 56.6531L69.3579 57.7387" stroke="#E06F5B" stroke-width="0.25" stroke-miterlimit="10" stroke-linecap="round"/>
<path d="M69.3579 56.6531L70.4435 57.7387" stroke="#E06F5B" stroke-width="0.25" stroke-miterlimit="10" stroke-linecap="round"/>
<path d="M65.6271 58.8525H62.2259C61.3109 58.8525 60.5693 58.1107 60.5693 57.1959C60.5693 56.2809 61.3109 55.5393 62.2259 55.5393H65.6271C66.5421 55.5393 67.2837 56.2811 67.2837 57.1959C67.2837 58.1109 66.5421 58.8525 65.6271 58.8525Z" fill="white"/>
<path d="M62.8365 56.6531L61.7507 57.7387" stroke="#E06F5B" stroke-width="0.25" stroke-miterlimit="10" stroke-linecap="round"/>
<path d="M61.7507 56.6531L62.8365 57.7387" stroke="#E06F5B" stroke-width="0.25" stroke-miterlimit="10" stroke-linecap="round"/>
<path d="M86.5386 58.8525H81.4808C80.5658 58.8525 79.8242 58.1107 79.8242 57.1959C79.8242 56.2809 80.566 55.5393 81.4808 55.5393H86.5386C87.4536 55.5393 88.1952 56.2811 88.1952 57.1959C88.1952 58.1109 87.4534 58.8525 86.5386 58.8525Z" fill="white"/>
<path d="M82.0914 56.6531L81.0056 57.7387" stroke="#E06F5B" stroke-width="0.25" stroke-miterlimit="10" stroke-linecap="round"/>
<path d="M81.0056 56.6531L82.0914 57.7387" stroke="#E06F5B" stroke-width="0.25" stroke-miterlimit="10" stroke-linecap="round"/>
<path d="M82.5102 54.7426H74.9952C74.0802 54.7426 73.3386 54.0008 73.3386 53.086C73.3386 52.171 74.0804 51.4294 74.9952 51.4294H82.5102C83.4252 51.4294 84.1668 52.1712 84.1668 53.086C84.1668 54.0008 83.425 54.7426 82.5102 54.7426Z" fill="white"/>
<path d="M75.6056 52.543L74.52 53.6288" stroke="#E06F5B" stroke-width="0.25" stroke-miterlimit="10" stroke-linecap="round"/>
<path d="M74.52 52.543L75.6056 53.6288" stroke="#E06F5B" stroke-width="0.25" stroke-miterlimit="10" stroke-linecap="round"/>
<path d="M83.5445 62.9629H72.3797C71.4647 62.9629 70.7231 62.2211 70.7231 61.3063C70.7231 60.3913 71.4649 59.6497 72.3797 59.6497H83.5445C84.4595 59.6497 85.2011 60.3915 85.2011 61.3063C85.2013 62.2211 84.4595 62.9629 83.5445 62.9629Z" fill="white"/>
<path d="M72.9906 60.7632L71.9048 61.849" stroke="#E06F5B" stroke-width="0.25" stroke-miterlimit="10" stroke-linecap="round"/>
<path d="M71.9048 60.7632L72.9906 61.849" stroke="#E06F5B" stroke-width="0.25" stroke-miterlimit="10" stroke-linecap="round"/>
<path d="M39.4775 48.4837C40.5245 50.7441 41.2707 53.1504 42.0499 55.4892C42.6043 57.1584 43.1757 58.7924 43.8893 60.3124C44.9771 62.6358 45.7721 64.9783 48.1487 65.5507C48.2227 65.5685 48.2973 65.5837 48.3747 65.5995C48.7803 65.6805 49.2027 65.7151 49.6367 65.7021C50.5361 65.6727 51.3801 65.4314 52.1207 65.028C53.9103 64.055 55.0955 62.1307 55.0267 59.9549C55.0161 59.6391 55.0021 59.3253 54.9851 59.0135C54.7067 53.6321 53.5125 48.7321 50.6879 43.7609C49.1677 41.0843 46.4427 39.1719 43.6507 40.4629C40.8575 41.7565 38.1839 45.6911 39.4775 48.4837Z" fill="#EAAC93"/>
<path d="M25.3196 31.3027C25.7154 32.1839 26.7906 32.7121 27.7192 32.4457C28.6478 32.1793 29.2834 31.1217 29.0432 30.1859C28.7946 29.2177 27.4226 28.0723 26.3694 28.3683C25.2744 28.6761 24.9112 30.3933 25.3196 31.3027Z" fill="#31394B"/>
<path d="M36.9569 29.1413C37.6181 29.5299 37.8953 30.4225 37.6573 31.1517C37.4193 31.8809 36.7359 32.4183 35.9857 32.5787C35.2357 32.7391 34.4377 32.5539 33.7733 32.1707C33.1411 31.8061 33.3295 30.9105 33.4703 30.1945C33.6111 29.4785 34.1261 28.8469 34.7991 28.5649C35.4721 28.2829 36.3277 28.7715 36.9569 29.1413Z" fill="#31394B"/>
<path d="M48.8591 88.5177C38.1951 88.6877 27.4871 85.1697 19.0051 78.7017C18.7151 78.4797 18.4311 78.2557 18.1511 78.0257C17.0451 77.1237 16.0211 76.1717 15.0771 75.1737C15.8011 72.2897 16.5811 69.5737 17.4171 67.1937C17.7751 66.1757 18.1411 65.2197 18.5191 64.3377L21.6671 64.4057L25.2731 64.4797L31.7911 64.6197H31.7951L38.3571 64.7577H38.3591L38.4131 64.7597L42.5611 64.8477C42.5611 64.8477 45.2311 62.4017 46.8311 67.4877C47.0991 68.3417 47.3391 69.4137 47.5311 70.7457C48.0251 74.1957 48.9251 81.4417 48.8591 88.5177Z" fill="#43434D"/>
<path d="M24.3183 48.4837C23.2713 50.7441 22.5253 53.1504 21.7461 55.4892C21.1915 57.1584 20.6203 58.7924 19.9067 60.3124C18.8189 62.6358 18.0239 64.9783 15.6473 65.5507C15.5733 65.5685 15.4987 65.5837 15.4213 65.5995C15.0157 65.6805 14.5933 65.7151 14.1593 65.7021C13.2599 65.6727 12.4159 65.4314 11.6753 65.028C9.88566 64.055 8.70046 62.1307 8.76946 59.9549C8.78006 59.6391 8.79406 59.3253 8.81106 59.0135C9.08946 53.6321 10.2837 48.7321 13.1083 43.7609C14.6285 41.0843 17.3535 39.1719 20.1455 40.4629C22.9383 41.7565 25.6119 45.6911 24.3183 48.4837Z" fill="#EAAC93"/>
<path d="M36.2134 30.7283L31.5296 31.1913L26.846 30.7283C26.846 30.7283 27.2448 33.2423 26.0542 36.3071C26.0542 36.3071 26.454 38.8099 27.977 40.2251C29.2078 41.3689 34.526 41.3835 35.7556 40.2385C37.2748 38.8237 36.9772 36.3069 36.9772 36.3069C35.7864 33.2419 36.2134 30.7283 36.2134 30.7283Z" fill="#EAAC93"/>
<path d="M36.2827 28.7808C36.2827 30.3306 36.2139 31.9018 35.6467 33.0338C34.8683 34.5884 33.3421 35.4452 31.5147 35.4452C29.6897 35.4452 28.1777 34.5624 27.3993 33.0102C26.8297 31.8758 26.7467 30.333 26.7467 28.781C26.7467 28.3064 26.7443 27.8008 26.7633 27.3024C26.7657 27.2194 26.7681 27.1386 26.7729 27.058C26.8061 26.346 26.8915 25.6648 27.0909 25.1166C27.8053 23.1562 29.4215 22.6582 31.5147 22.6582C33.6365 22.6582 35.2741 23.2108 35.9789 25.2092C36.1855 25.8002 36.2543 26.5406 36.2755 27.3024C36.2779 27.3618 36.2779 27.421 36.2779 27.4804C36.2875 27.9192 36.2827 28.3606 36.2827 28.7808Z" fill="#EAAC93"/>
<path d="M39.3472 29.1812C39.3472 28.1434 38.506 27.3022 37.4682 27.3022C36.4304 27.3022 35.01 28.1434 35.01 29.1812C35.01 30.219 36.4304 31.0602 37.4682 31.0602C38.506 31.0602 39.3472 30.2188 39.3472 29.1812Z" fill="#EAAC93"/>
<path d="M23.6843 29.1812C23.6843 28.1434 24.5257 27.3022 25.5635 27.3022C26.6013 27.3022 28.0217 28.1434 28.0217 29.1812C28.0217 30.219 26.6013 31.0602 25.5635 31.0602C24.5255 31.0602 23.6843 30.2188 23.6843 29.1812Z" fill="#EAAC93"/>
<path d="M37.468 28.7607C37.7022 28.9877 37.8898 29.2629 38.0152 29.5641" stroke="#0F1109" stroke-width="0.25" stroke-miterlimit="10" stroke-linecap="round"/>
<path d="M38.1878 28.728C37.8656 28.9688 37.5814 29.26 37.3486 29.588" stroke="#0F1109" stroke-width="0.25" stroke-miterlimit="10" stroke-linecap="round"/>
<path d="M25.5636 28.7607C25.3294 28.9877 25.142 29.2629 25.0164 29.5641" stroke="#0F1109" stroke-width="0.25" stroke-miterlimit="10" stroke-linecap="round"/>
<path d="M24.8438 28.728C25.1659 28.9688 25.4501 29.26 25.6829 29.588" stroke="#0F1109" stroke-width="0.25" stroke-miterlimit="10" stroke-linecap="round"/>
<path d="M30.0477 28.4812C30.0477 28.3792 29.9651 28.2966 29.8631 28.2966C29.7611 28.2966 29.6785 28.3792 29.6785 28.4812C29.6785 28.5832 29.7611 28.6658 29.8631 28.6658C29.9649 28.6656 30.0477 28.583 30.0477 28.4812Z" fill="#050902"/>
<path d="M33.7068 28.4812C33.7068 28.3792 33.6242 28.2966 33.5222 28.2966C33.4204 28.2966 33.3376 28.3792 33.3376 28.4812C33.3376 28.5832 33.4202 28.6658 33.5222 28.6658C33.6242 28.6656 33.7068 28.583 33.7068 28.4812Z" fill="#050902"/>
<path d="M35.1726 33.7842C35.1726 33.7842 33.84 35.4456 31.5152 35.4456C29.1904 35.4456 27.9768 33.8892 27.9768 33.8892" stroke="#0F1109" stroke-width="0.25" stroke-miterlimit="10" stroke-linecap="round"/>
<path opacity="0.3" d="M35.8871 31.1456C36.0143 30.4742 35.4367 29.8966 34.7653 30.0238C34.3903 30.0948 34.0877 30.3974 34.0167 30.7724C33.8895 31.4438 34.4671 32.0214 35.1385 31.8942C35.5135 31.8232 35.8161 31.5208 35.8871 31.1456Z" fill="#222221"/>
<path opacity="0.3" d="M29.0139 31.1456C29.1411 30.4742 28.5635 29.8966 27.8923 30.0238C27.5171 30.0948 27.2147 30.3974 27.1435 30.7724C27.0161 31.4438 27.5939 32.0216 28.2653 31.8942C28.6403 31.8232 28.9427 31.5208 29.0139 31.1456Z" fill="#222221"/>
<path d="M32.0044 28.2559C32.0242 28.8057 32.044 29.3555 32.0638 29.9053C32.0676 30.0089 32.0702 30.1173 32.0248 30.2105C31.9664 30.3303 31.8362 30.4021 31.705 30.4245C31.5736 30.4471 31.4392 30.4277 31.3074 30.4085" stroke="#0F1109" stroke-width="0.25" stroke-miterlimit="10" stroke-linecap="round"/>
<path d="M30.1195 30.4177C30.1145 30.7823 30.2889 31.1451 30.5767 31.3691C30.8645 31.5931 31.2591 31.6731 31.6113 31.5787" stroke="#0F1109" stroke-width="0.25" stroke-miterlimit="10" stroke-linecap="round"/>
<path d="M30.7486 27.1693C30.768 27.3019 30.3796 27.4689 29.881 27.5421C29.3824 27.6153 28.9622 27.5673 28.9428 27.4347C28.9234 27.3021 29.3118 27.1353 29.8104 27.0619C30.309 26.9885 30.7292 27.0367 30.7486 27.1693Z" fill="#31394B"/>
<path d="M32.9025 27.1848C32.8831 27.3174 33.2741 27.4846 33.7761 27.5584C34.2781 27.6322 34.7009 27.5844 34.7203 27.4518C34.7397 27.3192 34.3487 27.152 33.8467 27.0782C33.3447 27.0044 32.9219 27.0522 32.9025 27.1848Z" fill="#31394B"/>
<path d="M44.8594 38.7862C42.7626 38.0778 36.9782 36.3066 36.9782 36.3066C36.9782 36.3066 35.6724 39.3998 31.898 39.4796C31.8978 39.4796 31.0178 39.4316 31.0176 39.4316C28.1508 39.3462 26.0542 36.307 26.0542 36.307C26.0542 36.307 21.1164 37.0472 19.0234 37.765C10.7854 40.5902 9.51123 50.6842 9.51123 50.6842C9.51123 50.6842 10.349 51.0044 12.585 52.1624C15.6738 53.7622 19.0598 55.1942 19.0598 55.1942L19.4108 53.1504C17.7734 62.9168 15.492 72.936 15.492 72.936C15.492 72.936 22.9046 75.062 32.8434 75.062C43.1908 75.062 47.9636 72.4268 47.9636 72.4268C47.9636 72.4268 45.3076 58.1478 43.836 53.3496C43.836 53.3496 46.225 53.078 49.3818 51.8254C51.4372 51.0098 53.7186 49.9552 53.7186 49.9552C53.7186 49.9552 51.6794 41.09 44.8594 38.7862Z" fill="#E06F5B"/>
<mask id="mask0_216_1242" style="mask-type:luminance" maskUnits="userSpaceOnUse" x="9" y="36" width="45" height="40">
<path d="M44.8594 38.7862C42.7626 38.0778 36.9782 36.3066 36.9782 36.3066C36.9782 36.3066 35.6724 39.3998 31.898 39.4796C31.8978 39.4796 31.0178 39.4316 31.0176 39.4316C28.1508 39.3462 26.0542 36.307 26.0542 36.307C26.0542 36.307 21.1164 37.0472 19.0234 37.765C10.7854 40.5902 9.51123 50.6842 9.51123 50.6842C9.51123 50.6842 10.349 51.0044 12.585 52.1624C15.6738 53.7622 19.0598 55.1942 19.0598 55.1942L19.4108 53.1504C17.7734 62.9168 15.492 72.936 15.492 72.936C15.492 72.936 22.9046 75.062 32.8434 75.062C43.1908 75.062 47.9636 72.4268 47.9636 72.4268C47.9636 72.4268 45.3076 58.1478 43.836 53.3496C43.836 53.3496 46.225 53.078 49.3818 51.8254C51.4372 51.0098 53.7186 49.9552 53.7186 49.9552C53.7186 49.9552 51.6794 41.09 44.8594 38.7862Z" fill="white"/>
</mask>
<g mask="url(#mask0_216_1242)">
<path d="M54.3862 39.051H8.2666" stroke="white" stroke-width="0.25" stroke-miterlimit="10"/>
</g>
<mask id="mask1_216_1242" style="mask-type:luminance" maskUnits="userSpaceOnUse" x="9" y="36" width="45" height="40">
<path d="M44.8594 38.7862C42.7626 38.0778 36.9782 36.3066 36.9782 36.3066C36.9782 36.3066 35.6724 39.3998 31.898 39.4796C31.8978 39.4796 31.0178 39.4316 31.0176 39.4316C28.1508 39.3462 26.0542 36.307 26.0542 36.307C26.0542 36.307 21.1164 37.0472 19.0234 37.765C10.7854 40.5902 9.51123 50.6842 9.51123 50.6842C9.51123 50.6842 10.349 51.0044 12.585 52.1624C15.6738 53.7622 19.0598 55.1942 19.0598 55.1942L19.4108 53.1504C17.7734 62.9168 15.492 72.936 15.492 72.936C15.492 72.936 22.9046 75.062 32.8434 75.062C43.1908 75.062 47.9636 72.4268 47.9636 72.4268C47.9636 72.4268 45.3076 58.1478 43.836 53.3496C43.836 53.3496 46.225 53.078 49.3818 51.8254C51.4372 51.0098 53.7186 49.9552 53.7186 49.9552C53.7186 49.9552 51.6794 41.09 44.8594 38.7862Z" fill="white"/>
</mask>
<g mask="url(#mask1_216_1242)">
<path d="M54.3862 43.0049H8.2666" stroke="white" stroke-width="0.25" stroke-miterlimit="10"/>
</g>
<mask id="mask2_216_1242" style="mask-type:luminance" maskUnits="userSpaceOnUse" x="9" y="36" width="45" height="40">
<path d="M44.8594 38.7862C42.7626 38.0778 36.9782 36.3066 36.9782 36.3066C36.9782 36.3066 35.6724 39.3998 31.898 39.4796C31.8978 39.4796 31.0178 39.4316 31.0176 39.4316C28.1508 39.3462 26.0542 36.307 26.0542 36.307C26.0542 36.307 21.1164 37.0472 19.0234 37.765C10.7854 40.5902 9.51123 50.6842 9.51123 50.6842C9.51123 50.6842 10.349 51.0044 12.585 52.1624C15.6738 53.7622 19.0598 55.1942 19.0598 55.1942L19.4108 53.1504C17.7734 62.9168 15.492 72.936 15.492 72.936C15.492 72.936 22.9046 75.062 32.8434 75.062C43.1908 75.062 47.9636 72.4268 47.9636 72.4268C47.9636 72.4268 45.3076 58.1478 43.836 53.3496C43.836 53.3496 46.225 53.078 49.3818 51.8254C51.4372 51.0098 53.7186 49.9552 53.7186 49.9552C53.7186 49.9552 51.6794 41.09 44.8594 38.7862Z" fill="white"/>
</mask>
<g mask="url(#mask2_216_1242)">
<path d="M54.3862 46.9587H8.2666" stroke="white" stroke-width="0.25" stroke-miterlimit="10"/>
</g>
<mask id="mask3_216_1242" style="mask-type:luminance" maskUnits="userSpaceOnUse" x="9" y="36" width="45" height="40">
<path d="M44.8594 38.7862C42.7626 38.0778 36.9782 36.3066 36.9782 36.3066C36.9782 36.3066 35.6724 39.3998 31.898 39.4796C31.8978 39.4796 31.0178 39.4316 31.0176 39.4316C28.1508 39.3462 26.0542 36.307 26.0542 36.307C26.0542 36.307 21.1164 37.0472 19.0234 37.765C10.7854 40.5902 9.51123 50.6842 9.51123 50.6842C9.51123 50.6842 10.349 51.0044 12.585 52.1624C15.6738 53.7622 19.0598 55.1942 19.0598 55.1942L19.4108 53.1504C17.7734 62.9168 15.492 72.936 15.492 72.936C15.492 72.936 22.9046 75.062 32.8434 75.062C43.1908 75.062 47.9636 72.4268 47.9636 72.4268C47.9636 72.4268 45.3076 58.1478 43.836 53.3496C43.836 53.3496 46.225 53.078 49.3818 51.8254C51.4372 51.0098 53.7186 49.9552 53.7186 49.9552C53.7186 49.9552 51.6794 41.09 44.8594 38.7862Z" fill="white"/>
</mask>
<g mask="url(#mask3_216_1242)">
<path d="M54.3862 50.9124H8.2666" stroke="white" stroke-width="0.25" stroke-miterlimit="10"/>
</g>
<mask id="mask4_216_1242" style="mask-type:luminance" maskUnits="userSpaceOnUse" x="9" y="36" width="45" height="40">
<path d="M44.8594 38.7862C42.7626 38.0778 36.9782 36.3066 36.9782 36.3066C36.9782 36.3066 35.6724 39.3998 31.898 39.4796C31.8978 39.4796 31.0178 39.4316 31.0176 39.4316C28.1508 39.3462 26.0542 36.307 26.0542 36.307C26.0542 36.307 21.1164 37.0472 19.0234 37.765C10.7854 40.5902 9.51123 50.6842 9.51123 50.6842C9.51123 50.6842 10.349 51.0044 12.585 52.1624C15.6738 53.7622 19.0598 55.1942 19.0598 55.1942L19.4108 53.1504C17.7734 62.9168 15.492 72.936 15.492 72.936C15.492 72.936 22.9046 75.062 32.8434 75.062C43.1908 75.062 47.9636 72.4268 47.9636 72.4268C47.9636 72.4268 45.3076 58.1478 43.836 53.3496C43.836 53.3496 46.225 53.078 49.3818 51.8254C51.4372 51.0098 53.7186 49.9552 53.7186 49.9552C53.7186 49.9552 51.6794 41.09 44.8594 38.7862Z" fill="white"/>
</mask>
<g mask="url(#mask4_216_1242)">
<path d="M54.3862 54.8662H8.2666" stroke="white" stroke-width="0.25" stroke-miterlimit="10"/>
</g>
<mask id="mask5_216_1242" style="mask-type:luminance" maskUnits="userSpaceOnUse" x="9" y="36" width="45" height="40">
<path d="M44.8594 38.7862C42.7626 38.0778 36.9782 36.3066 36.9782 36.3066C36.9782 36.3066 35.6724 39.3998 31.898 39.4796C31.8978 39.4796 31.0178 39.4316 31.0176 39.4316C28.1508 39.3462 26.0542 36.307 26.0542 36.307C26.0542 36.307 21.1164 37.0472 19.0234 37.765C10.7854 40.5902 9.51123 50.6842 9.51123 50.6842C9.51123 50.6842 10.349 51.0044 12.585 52.1624C15.6738 53.7622 19.0598 55.1942 19.0598 55.1942L19.4108 53.1504C17.7734 62.9168 15.492 72.936 15.492 72.936C15.492 72.936 22.9046 75.062 32.8434 75.062C43.1908 75.062 47.9636 72.4268 47.9636 72.4268C47.9636 72.4268 45.3076 58.1478 43.836 53.3496C43.836 53.3496 46.225 53.078 49.3818 51.8254C51.4372 51.0098 53.7186 49.9552 53.7186 49.9552C53.7186 49.9552 51.6794 41.09 44.8594 38.7862Z" fill="white"/>
</mask>
<g mask="url(#mask5_216_1242)">
<path d="M54.3862 58.8201H8.2666" stroke="white" stroke-width="0.25" stroke-miterlimit="10"/>
</g>
<mask id="mask6_216_1242" style="mask-type:luminance" maskUnits="userSpaceOnUse" x="9" y="36" width="45" height="40">
<path d="M44.8594 38.7862C42.7626 38.0778 36.9782 36.3066 36.9782 36.3066C36.9782 36.3066 35.6724 39.3998 31.898 39.4796C31.8978 39.4796 31.0178 39.4316 31.0176 39.4316C28.1508 39.3462 26.0542 36.307 26.0542 36.307C26.0542 36.307 21.1164 37.0472 19.0234 37.765C10.7854 40.5902 9.51123 50.6842 9.51123 50.6842C9.51123 50.6842 10.349 51.0044 12.585 52.1624C15.6738 53.7622 19.0598 55.1942 19.0598 55.1942L19.4108 53.1504C17.7734 62.9168 15.492 72.936 15.492 72.936C15.492 72.936 22.9046 75.062 32.8434 75.062C43.1908 75.062 47.9636 72.4268 47.9636 72.4268C47.9636 72.4268 45.3076 58.1478 43.836 53.3496C43.836 53.3496 46.225 53.078 49.3818 51.8254C51.4372 51.0098 53.7186 49.9552 53.7186 49.9552C53.7186 49.9552 51.6794 41.09 44.8594 38.7862Z" fill="white"/>
</mask>
<g mask="url(#mask6_216_1242)">
<path d="M54.3862 62.7739H8.2666" stroke="white" stroke-width="0.25" stroke-miterlimit="10"/>
</g>
<mask id="mask7_216_1242" style="mask-type:luminance" maskUnits="userSpaceOnUse" x="9" y="36" width="45" height="40">
<path d="M44.8594 38.7862C42.7626 38.0778 36.9782 36.3066 36.9782 36.3066C36.9782 36.3066 35.6724 39.3998 31.898 39.4796C31.8978 39.4796 31.0178 39.4316 31.0176 39.4316C28.1508 39.3462 26.0542 36.307 26.0542 36.307C26.0542 36.307 21.1164 37.0472 19.0234 37.765C10.7854 40.5902 9.51123 50.6842 9.51123 50.6842C9.51123 50.6842 10.349 51.0044 12.585 52.1624C15.6738 53.7622 19.0598 55.1942 19.0598 55.1942L19.4108 53.1504C17.7734 62.9168 15.492 72.936 15.492 72.936C15.492 72.936 22.9046 75.062 32.8434 75.062C43.1908 75.062 47.9636 72.4268 47.9636 72.4268C47.9636 72.4268 45.3076 58.1478 43.836 53.3496C43.836 53.3496 46.225 53.078 49.3818 51.8254C51.4372 51.0098 53.7186 49.9552 53.7186 49.9552C53.7186 49.9552 51.6794 41.09 44.8594 38.7862Z" fill="white"/>
</mask>
<g mask="url(#mask7_216_1242)">
<path d="M54.3862 66.7275H8.2666" stroke="white" stroke-width="0.25" stroke-miterlimit="10"/>
</g>
<mask id="mask8_216_1242" style="mask-type:luminance" maskUnits="userSpaceOnUse" x="9" y="36" width="45" height="40">
<path d="M44.8594 38.7862C42.7626 38.0778 36.9782 36.3066 36.9782 36.3066C36.9782 36.3066 35.6724 39.3998 31.898 39.4796C31.8978 39.4796 31.0178 39.4316 31.0176 39.4316C28.1508 39.3462 26.0542 36.307 26.0542 36.307C26.0542 36.307 21.1164 37.0472 19.0234 37.765C10.7854 40.5902 9.51123 50.6842 9.51123 50.6842C9.51123 50.6842 10.349 51.0044 12.585 52.1624C15.6738 53.7622 19.0598 55.1942 19.0598 55.1942L19.4108 53.1504C17.7734 62.9168 15.492 72.936 15.492 72.936C15.492 72.936 22.9046 75.062 32.8434 75.062C43.1908 75.062 47.9636 72.4268 47.9636 72.4268C47.9636 72.4268 45.3076 58.1478 43.836 53.3496C43.836 53.3496 46.225 53.078 49.3818 51.8254C51.4372 51.0098 53.7186 49.9552 53.7186 49.9552C53.7186 49.9552 51.6794 41.09 44.8594 38.7862Z" fill="white"/>
</mask>
<g mask="url(#mask8_216_1242)">
<path d="M54.3862 70.6814H8.2666" stroke="white" stroke-width="0.25" stroke-miterlimit="10"/>
</g>
<path d="M10.238 48.9309C10.238 48.9309 13.8862 50.8413 19.0596 53.3499" stroke="#0F1109" stroke-width="0.25" stroke-miterlimit="10" stroke-linecap="round"/>
<path d="M43.8361 53.35L42.7539 48.5862" stroke="#0F1109" stroke-width="0.25" stroke-miterlimit="10" stroke-linecap="round"/>
<path d="M43.8359 51.5885C43.8359 51.5885 49.2889 50.1537 53.0299 48.2563" stroke="#0F1109" stroke-width="0.25" stroke-miterlimit="10" stroke-linecap="round"/>
<path d="M19.1013 54.9567L20.6547 48.6921" stroke="#0F1109" stroke-width="0.25" stroke-miterlimit="10" stroke-linecap="round"/>
<path d="M25.4842 65.707L21.8894 44.8654L37.5702 42.1606L41.1652 63.0026L25.4844 65.7072L25.4842 65.707Z" fill="#E8C245"/>
<path d="M38.8056 62.1483C38.8056 62.2295 38.8138 62.3089 38.8284 62.3853L27.54 64.3313C27.4474 63.7341 26.9314 63.2779 26.3098 63.2779C26.2352 63.2779 26.1622 63.2845 26.0908 63.2973L23.2634 46.9141C23.851 46.8135 24.2974 46.3021 24.2974 45.6855C24.2974 45.6141 24.2908 45.5427 24.2796 45.4745L35.4674 43.5447C35.5454 44.1583 36.068 44.6305 36.701 44.6305C36.7936 44.6305 36.8828 44.6207 36.9704 44.6013L39.7864 60.9309C39.226 61.0527 38.8056 61.5511 38.8056 62.1483Z" stroke="white" stroke-width="0.25" stroke-miterlimit="10"/>
<path d="M22.2213 65.191C22.8037 65.8448 23.6069 66.4662 24.2651 66.9246C24.9233 67.3832 25.4367 67.6788 25.4367 67.6788C25.8123 67.9342 26.2473 68.1452 26.7459 68.3028C33.1427 70.1638 40.0715 69.715 46.3561 67.6484C47.9553 67.1222 49.5349 66.4998 51.0545 65.749C51.4295 65.5702 51.7999 65.3784 52.1663 65.179C52.9665 64.7702 53.6203 64.1876 54.1075 63.5004C55.4075 61.6852 55.5593 59.1452 54.2329 57.1688C54.1869 57.0986 54.1385 57.0316 54.0901 56.9644C52.3473 54.5682 49.0073 53.9456 46.5127 55.5984C44.9155 56.718 43.1117 57.6674 41.2057 58.4064C38.7171 59.371 36.0567 59.9708 33.4505 60.1146C32.4035 60.1722 31.3605 60.144 30.3207 60.044C30.2469 60.0274 28.4027 59.6166 27.2989 58.6134C26.1699 57.5892 25.3107 56.4538 24.8709 56.6778C24.4307 56.8992 24.5455 58.1108 25.2195 59.0508C25.2195 59.0508 24.3701 59.0492 23.8829 58.5216C23.3963 57.9966 23.3707 56.9616 22.7017 57.123C22.0325 57.2818 21.7521 57.9552 21.7533 58.3946C21.7533 58.3946 20.8349 58.785 21.2551 60.5786C21.2551 60.5786 20.7823 61.2142 21.1029 62.3298C21.1027 62.3292 21.0563 63.8834 22.2213 65.191Z" fill="#EAAC93"/>
<path opacity="0.3" d="M50.0982 63.3167C50.2112 64.0861 50.4724 64.7981 50.8452 65.4277C50.911 65.5389 50.9788 65.6445 51.0546 65.7487C51.4296 65.5699 51.8 65.3781 52.1664 65.1787C52.9666 64.7699 53.6204 64.1873 54.1076 63.5001C55.405 61.9297 55.787 59.7025 54.9116 57.7093C54.784 57.4203 54.654 57.1343 54.5218 56.8513C54.375 56.8811 54.232 56.9185 54.0904 56.9641C51.4202 57.7961 49.6794 60.4649 50.0982 63.3167Z" fill="#222221"/>
<path d="M41.2034 58.4065C42.2442 57.8543 43.5068 57.3959 44.5474 56.8438" stroke="#0F1109" stroke-width="0.25" stroke-miterlimit="10" stroke-linecap="round"/>
<path d="M21.7542 58.394C21.7542 58.394 22.0196 59.8876 22.9188 60.6784" stroke="#0F1109" stroke-width="0.25" stroke-miterlimit="10" stroke-linecap="round"/>
<path d="M21.2563 60.5779C21.2563 60.5779 21.5571 61.6891 22.4355 62.1475" stroke="#0F1109" stroke-width="0.25" stroke-miterlimit="10" stroke-linecap="round"/>
<path d="M21.1042 62.3303C21.1042 62.3303 21.4938 63.5443 22.4382 63.8809" stroke="#0F1109" stroke-width="0.25" stroke-miterlimit="10" stroke-linecap="round"/>
<path d="M34.7823 29.4136C35.3767 28.8192 35.3767 27.8556 34.7823 27.2612C34.188 26.6668 33.2243 26.6668 32.6299 27.2612C32.0355 27.8556 32.0355 28.8192 32.6299 29.4136C33.2243 30.008 34.188 30.008 34.7823 29.4136Z" stroke="#0F1109" stroke-width="0.25" stroke-miterlimit="10" stroke-linecap="round"/>
<path d="M30.471 29.8193C31.289 29.6256 31.795 28.8054 31.6013 27.9874C31.4075 27.1695 30.5874 26.6634 29.7694 26.8572C28.9514 27.0509 28.4454 27.8711 28.6392 28.6891C28.8329 29.507 29.6531 30.0131 30.471 29.8193Z" stroke="#0F1109" stroke-width="0.25" stroke-miterlimit="10" stroke-linecap="round"/>
<path d="M42.1353 61.4817C41.6541 62.2131 40.9497 62.9447 40.3651 63.4939C39.7805 64.0431 39.2683 64.2591 37.6749 65.1257C31.8225 68.3087 25.1319 68.5517 18.6139 67.4205C16.9551 67.1323 15.3019 66.7461 13.6893 66.2241C13.2923 66.1017 12.8981 65.9657 12.5065 65.8217C11.6553 65.5335 10.9239 65.0521 10.3419 64.4431C8.79193 62.8361 8.27253 60.3451 9.29773 58.1969C9.33313 58.1207 9.37113 58.0473 9.40913 57.9739C10.7851 55.3499 13.9993 54.2485 16.7075 55.5211C18.4505 56.3967 20.3731 57.0737 22.3663 57.5279C24.9687 58.1207 27.6879 58.3273 30.2875 58.0907C31.3317 57.9955 32.3595 57.8161 33.3739 57.5659C33.4447 57.5387 35.2095 56.8643 36.1557 55.7113C37.1237 54.5339 37.8089 53.2857 38.2767 53.4435C38.7445 53.5985 38.8069 54.8141 38.2767 55.8419C38.2767 55.8419 39.1169 55.7169 39.5221 55.1241C39.9273 54.5341 39.8021 53.5061 40.4875 53.5687C41.1727 53.6285 41.5481 54.2539 41.6105 54.6891C41.6105 54.6891 42.5759 54.9419 42.4209 56.7775C42.4209 56.7775 42.9811 57.3377 42.8261 58.4879C42.8261 58.4879 43.0979 60.0189 42.1353 61.4817Z" fill="#EAAC93"/>
<path opacity="0.3" d="M14.2818 63.6788C14.2818 64.4566 14.1268 65.1988 13.8494 65.876C13.8004 65.9956 13.7488 66.1098 13.689 66.224C13.292 66.1016 12.8978 65.9656 12.5062 65.8216C11.655 65.5334 10.9236 65.052 10.3416 64.443C8.82963 63.078 8.12823 60.9299 8.70463 58.8305C8.78903 58.5259 8.87603 58.224 8.96563 57.925C9.11523 57.9332 9.26203 57.9494 9.40883 57.974C12.1718 58.409 14.2818 60.7964 14.2818 63.6788Z" fill="#222221"/>
<path d="M40.8967 53.6851C40.8967 53.6851 42.5785 54.6721 40.7893 57.1183" stroke="#0F1109" stroke-width="0.25" stroke-miterlimit="10" stroke-linecap="round"/>
<path d="M41.9504 54.9055C41.9504 54.9055 43.1956 56.6329 41.4812 58.5017" stroke="#0F1109" stroke-width="0.25" stroke-miterlimit="10" stroke-linecap="round"/>
<path d="M42.6747 57.1853C42.6747 57.1853 43.4197 59.3625 41.7305 60.2171" stroke="#0F1109" stroke-width="0.25" stroke-miterlimit="10" stroke-linecap="round"/>
<path d="M18.833 56.4679C19.943 56.8631 21.2238 57.2495 22.3686 57.5281C26.8678 58.6229 30.2872 58.0909 31.979 57.8619C33.6706 57.6329 34.7918 56.8513 34.7918 56.8513C34.7918 56.8513 35.3858 56.5897 36.1556 55.7115C36.9254 54.8333 37.5398 53.8571 37.7496 53.6851" stroke="#0F1109" stroke-width="0.25" stroke-miterlimit="10" stroke-linecap="round"/>
<path d="M42.8752 59.0867C42.8752 59.0867 42.8978 61.7563 39.652 64.0389C39.652 64.0389 33.3896 68.1519 26.0652 68.0365" stroke="#0F1109" stroke-width="0.25" stroke-miterlimit="10" stroke-linecap="round"/>
<path d="M38.28 53.4661C38.28 53.4661 39.1176 53.7401 38.28 55.9397" stroke="#0F1109" stroke-width="0.25" stroke-miterlimit="10" stroke-linecap="round"/>
<path d="M40.4319 53.5967C40.4319 53.5967 40.1463 53.4037 39.8739 54.4183C39.6015 55.4331 39.0931 55.6971 38.7463 55.8061" stroke="#0F1109" stroke-width="0.25" stroke-miterlimit="10" stroke-linecap="round"/>
<path d="M26.5565 27.5748C27.9143 27.5748 29.0149 26.4741 29.0149 25.1164C29.0149 23.7586 27.9143 22.658 26.5565 22.658C25.1988 22.658 24.0981 23.7586 24.0981 25.1164C24.0981 26.4741 25.1988 27.5748 26.5565 27.5748Z" fill="#31394B"/>
<path d="M36.4068 27.9417C37.2498 27.9417 37.9332 27.2583 37.9332 26.4153C37.9332 25.5723 37.2498 24.8889 36.4068 24.8889C35.5638 24.8889 34.8804 25.5723 34.8804 26.4153C34.8804 27.2583 35.5638 27.9417 36.4068 27.9417Z" fill="#31394B"/>
<path d="M37.4131 26.3821C38.2561 26.3821 38.9395 25.6988 38.9395 24.8557C38.9395 24.0127 38.2561 23.3293 37.4131 23.3293C36.5701 23.3293 35.8867 24.0127 35.8867 24.8557C35.8867 25.6988 36.5701 26.3821 37.4131 26.3821Z" fill="#31394B"/>
<path d="M31.3073 25.8053C32.0931 25.8053 32.7301 25.1683 32.7301 24.3825C32.7301 23.5967 32.0931 22.9597 31.3073 22.9597C30.5215 22.9597 29.8845 23.5967 29.8845 24.3825C29.8845 25.1683 30.5215 25.8053 31.3073 25.8053Z" fill="#31394B"/>
<path d="M38.071 28.3644C38.8568 28.3644 39.4938 27.7274 39.4938 26.9416C39.4938 26.1558 38.8568 25.5188 38.071 25.5188C37.2852 25.5188 36.6482 26.1558 36.6482 26.9416C36.6482 27.7274 37.2852 28.3644 38.071 28.3644Z" fill="#31394B"/>
<path d="M26.7125 26.8154C26.7125 26.0296 26.0755 25.3926 25.2897 25.3926C24.5039 25.3926 23.8669 26.0296 23.8669 26.8154C23.8669 27.6012 24.5039 28.2382 25.2897 28.2382C26.0755 28.2382 26.7125 27.6012 26.7125 26.8154Z" fill="#31394B"/>
<path d="M36.8157 24.5449C37.6115 23.7491 37.6115 22.4589 36.8157 21.6631C36.0199 20.8673 34.7297 20.8673 33.9338 21.6631C33.138 22.4589 33.138 23.7491 33.9338 24.5449C34.7297 25.3407 36.0199 25.3407 36.8157 24.5449Z" fill="#31394B"/>
<path d="M29.4993 25.1032C30.5949 24.8457 31.2744 23.7487 31.0169 22.6531C30.7593 21.5575 29.6624 20.8781 28.5668 21.1356C27.4712 21.3931 26.7918 22.49 27.0493 23.5856C27.3068 24.6812 28.4037 25.3607 29.4993 25.1032Z" fill="#31394B"/>
<path d="M33.5054 23.6201C34.362 22.8901 34.4647 21.604 33.7347 20.7474C33.0047 19.8908 31.7186 19.7882 30.862 20.5181C30.0054 21.2481 29.9028 22.5342 30.6328 23.3908C31.3627 24.2474 32.6489 24.35 33.5054 23.6201Z" fill="#31394B"/>
<path d="M35.6631 25.5476C36.4589 24.7518 36.4589 23.4616 35.6631 22.6658C34.8673 21.87 33.5771 21.87 32.7813 22.6658C31.9855 23.4616 31.9855 24.7518 32.7813 25.5476C33.5771 26.3434 34.8673 26.3434 35.6631 25.5476Z" fill="#31394B"/>
<path d="M41.0559 75.0625C41.0559 75.0625 41.2411 80.1087 48.2359 81.4985" stroke="white" stroke-width="0.25" stroke-miterlimit="10"/>
<path d="M20.9913 74.5962C20.9913 74.5962 20.9199 76.2498 20.0493 77.7466" stroke="white" stroke-width="0.25" stroke-miterlimit="10"/>
<path d="M85.0867 25.0256H45.5691V27.2952H85.0867V25.0256Z" fill="#43434D"/>
<path d="M92.477 45.1726H61.55V47.4424H92.477V45.1726Z" fill="#43434D"/>
<path d="M69.5398 31.3524V45.1726H72.9794V31.3524H69.5398Z" fill="#E06F5B"/>
<path d="M70.5373 31.9011H71.9818C71.9818 32.2313 72.2506 32.4977 72.5836 32.4977V44.0815C72.2506 44.0815 71.9818 44.3479 71.9818 44.6781H70.5373C70.5373 44.3479 70.2685 44.0815 69.9355 44.0815V32.4977C70.2685 32.4977 70.5373 32.2311 70.5373 31.9011Z" stroke="white" stroke-width="0.25" stroke-miterlimit="10"/>
<path d="M63.3398 31.2026V45.1726H67.1568V31.2026H63.3398Z" fill="#857FF0"/>
<path d="M67.1681 32.5105H63.3401" stroke="#E8C245" stroke-width="0.25" stroke-miterlimit="10"/>
<path d="M67.1681 33.1448H63.3401" stroke="#E8C245" stroke-width="0.25" stroke-miterlimit="10"/>
<path d="M67.1681 43.5879H63.3401" stroke="#E8C245" stroke-width="0.25" stroke-miterlimit="10"/>
<path d="M67.1681 44.2222H63.3401" stroke="#E8C245" stroke-width="0.25" stroke-miterlimit="10"/>
<path d="M69.5401 32.064H67.1577V45.1726H69.5401V32.064Z" fill="#E8C245"/>
<path d="M75.3619 29.948H72.9795V45.1726H75.3619V29.948Z" fill="#857FF0"/>
<path d="M73.145 44.1331H75.2228" stroke="white" stroke-width="0.25" stroke-miterlimit="10"/>
<path d="M73.145 43.3872H75.2228" stroke="white" stroke-width="0.25" stroke-miterlimit="10"/>
<path d="M77.1675 34.8732C77.1675 34.4432 77.3419 34.0534 77.6245 33.771C77.9071 33.4884 78.2969 33.314 78.7277 33.314H91.2515V36.4334H78.7277C77.8661 36.4334 77.1675 35.7348 77.1675 34.8732Z" fill="#E8C245"/>
<path d="M91.2515 33.687V36.0604H78.7609C78.0881 36.0604 77.5405 35.528 77.5405 34.8734C77.5405 34.557 77.6675 34.2592 77.8979 34.0348C78.1283 33.8106 78.4347 33.6872 78.7609 33.6872H91.2515V33.687Z" fill="white"/>
<path d="M73.5054 34.8732C73.5054 34.4432 73.6798 34.0534 73.9624 33.771C74.245 33.4884 74.6348 33.314 75.0656 33.314H88.1222V33.3262C87.767 33.3682 87.449 33.5304 87.2092 33.771C86.9266 34.0536 86.7522 34.4434 86.7522 34.8732C86.7522 35.6704 87.35 36.3288 88.122 36.4212V36.4334H75.0654C74.2038 36.4334 73.5054 35.7348 73.5054 34.8732Z" fill="#E8C245"/>
<path d="M88.4433 35.4512L87.9493 35.0782L87.4551 35.4512V34.1484H88.4433V35.4512Z" fill="#E06F5B"/>
<path d="M87.2512 36.0172C87.2512 36.0172 86.1704 35.0276 87.209 33.771" stroke="#0F1109" stroke-width="0.25" stroke-miterlimit="10" stroke-linecap="round"/>
<path d="M75.0654 33.314H91.2516V36.4334" stroke="#0F1109" stroke-width="0.25" stroke-miterlimit="10" stroke-linecap="round"/>
<path d="M87.552 34.1484H90.7964" stroke="#0F1109" stroke-width="0.25" stroke-miterlimit="10" stroke-linecap="round"/>
<path d="M90.4949 43.6124C90.4949 43.1824 90.3205 42.7928 90.0379 42.5102C89.7553 42.2276 89.3655 42.0532 88.9347 42.0532H76.4109V45.1724H88.9347C89.7963 45.1726 90.4949 44.4742 90.4949 43.6124Z" fill="#E06F5B"/>
<path d="M76.4109 42.4263V44.7997H88.9015C89.5745 44.7997 90.1219 44.2673 90.1219 43.6127C90.1219 43.2963 89.9949 42.9985 89.7645 42.7741C89.5341 42.5499 89.2277 42.4265 88.9015 42.4265H76.4109V42.4263Z" fill="white"/>
<path d="M91.2517 42.0532H79.5405V42.0654C79.8959 42.1074 80.2139 42.2696 80.4535 42.5102C80.7361 42.7928 80.9105 43.1826 80.9105 43.6124C80.9105 44.4098 80.3127 45.068 79.5407 45.1604V45.1726H91.2519V42.0532H91.2517Z" fill="#E06F5B"/>
<path d="M79.219 44.1905L79.7132 43.8175L80.2074 44.1905V42.8877H79.219V44.1905Z" fill="#E8C245"/>
<path d="M80.3311 44.7997C80.3311 44.7997 81.6189 43.8627 80.3627 42.4263" stroke="#0F1109" stroke-width="0.25" stroke-miterlimit="10" stroke-linecap="round"/>
<path d="M80.2075 44.1904H76.8799" stroke="#0F1109" stroke-width="0.25" stroke-miterlimit="10" stroke-linecap="round"/>
<path d="M90.3321 42.6482H87.4897V44.5776H90.3321V42.6482Z" fill="white"/>
<path d="M89.5472 43.613C89.5472 43.2616 89.2622 42.9766 88.9108 42.9766C88.5594 42.9766 88.2744 43.2616 88.2744 43.613C88.2744 43.9646 88.5594 44.2494 88.9108 44.2494C89.2624 44.2494 89.5472 43.9644 89.5472 43.613Z" fill="#E06F5B"/>
<path d="M75.9372 42.0693H92.6758V39.3225H75.9372V42.0693Z" fill="#78CD72"/>
<path d="M76.814 42.0532H92.479" stroke="#0F1109" stroke-width="0.25" stroke-miterlimit="10" stroke-linecap="round"/>
<path d="M75.9373 39.3226L92.4789 39.2986" stroke="#0F1109" stroke-width="0.25" stroke-miterlimit="10" stroke-linecap="round"/>
<path d="M75.3371 39.2371H92.0757V36.4903H75.3371V39.2371Z" fill="#78CD72"/>
<path d="M75.3372 36.4903L91.8788 36.4663" stroke="#0F1109" stroke-width="0.25" stroke-miterlimit="10" stroke-linecap="round"/>
<path d="M69.0938 34.5718C69.0938 33.7836 68.7602 33.1448 68.3488 33.1448C67.9374 33.1448 67.6038 33.7838 67.6038 34.5718C67.6038 35.36 67.9374 35.9988 68.3488 35.9988C68.7604 35.9988 69.0938 35.3598 69.0938 34.5718Z" stroke="white" stroke-width="0.25" stroke-miterlimit="10"/>
<path d="M69.0938 44.1331H67.604" stroke="white" stroke-width="0.25" stroke-miterlimit="10"/>
<path d="M69.5398 31.3523L69.5402 45.1725" stroke="#0F1109" stroke-width="0.25" stroke-miterlimit="10" stroke-linecap="round"/>
<path d="M63.3401 31.2776L63.3403 45.0976" stroke="#0F1109" stroke-width="0.25" stroke-miterlimit="10" stroke-linecap="round"/>
<path d="M72.9792 29.948L72.9796 45.1726" stroke="#0F1109" stroke-width="0.25" stroke-miterlimit="10" stroke-linecap="round"/>
<path d="M88.1048 40.2222C88.214 40.3386 88.283 40.4938 88.283 40.6686C88.283 40.8432 88.214 41.0002 88.1048 41.1148C88.0006 41.2294 87.8454 41.3034 87.6832 41.3034C87.5138 41.3034 87.3586 41.2294 87.251 41.1148C87.1416 41.0002 87.0764 40.8432 87.0764 40.6686C87.0764 40.494 87.1416 40.3386 87.251 40.2222C87.3586 40.1058 87.5138 40.0334 87.6832 40.0334C87.8454 40.0334 88.0006 40.1058 88.1048 40.2222ZM88.0816 40.6684C88.0816 40.5484 88.034 40.4374 87.9616 40.3596C87.8876 40.2804 87.7888 40.2344 87.683 40.2344C87.57 40.2344 87.4712 40.2802 87.3972 40.3596C87.3232 40.4374 87.2772 40.5484 87.2772 40.6684C87.2772 40.7884 87.3232 40.8994 87.3972 40.9752C87.4712 41.0546 87.57 41.1022 87.683 41.1022C87.7888 41.1022 87.8876 41.0548 87.9616 40.9752C88.034 40.8994 88.0816 40.7884 88.0816 40.6684Z" fill="white"/>
<path d="M89.0923 40.7636C89.0923 40.7054 89.1399 40.658 89.1963 40.658H89.5279C89.5843 40.658 89.6321 40.7054 89.6321 40.7636C89.6321 40.82 89.5845 40.8678 89.5279 40.8678H89.1963C89.1399 40.8676 89.0923 40.82 89.0923 40.7636Z" fill="white"/>
<path d="M91.2885 40.2242L90.6393 41.108H91.2073C91.2619 41.108 91.3061 41.152 91.3061 41.2066C91.3061 41.2612 91.2619 41.3036 91.2073 41.3036H90.4471C90.4419 41.3036 90.4365 41.3036 90.4295 41.3018C90.4277 41.3018 90.4261 41.3018 90.4243 41.3C90.4205 41.3 90.4171 41.2982 90.4117 41.2982C90.4099 41.2964 90.4081 41.2964 90.4065 41.293C90.4047 41.293 90.4013 41.2912 90.3977 41.2894C90.3941 41.2876 90.3925 41.2876 90.3907 41.2858C90.3907 41.2858 90.3907 41.2858 90.3907 41.284C90.3889 41.284 90.3871 41.2822 90.3855 41.2804C90.3837 41.2786 90.3803 41.275 90.3785 41.2714C90.3749 41.2696 90.3733 41.2678 90.3715 41.2662C90.3697 41.2644 90.3679 41.261 90.3661 41.2592C90.3643 41.254 90.3625 41.2522 90.3625 41.2504C90.3607 41.2468 90.3573 41.2452 90.3573 41.2416C90.3555 41.238 90.3555 41.2346 90.3539 41.231C90.3539 41.2292 90.3521 41.2274 90.3521 41.224C90.3521 41.2188 90.3503 41.215 90.3503 41.2114C90.3503 41.2096 90.3503 41.2078 90.3503 41.2062C90.3503 41.2062 90.3503 41.2062 90.3503 41.2044C90.3503 41.1992 90.3503 41.1956 90.3521 41.192C90.3521 41.1902 90.3521 41.1884 90.3521 41.1832C90.3539 41.1814 90.3539 41.178 90.3555 41.1744C90.3555 41.1726 90.3573 41.1692 90.3573 41.1656C90.3609 41.1638 90.3625 41.1602 90.3625 41.1584C90.3643 41.1566 90.3661 41.1532 90.3679 41.1496C90.3679 41.1496 90.3679 41.1496 90.3697 41.1496L91.0169 40.2642H90.4471C90.3925 40.2642 90.3501 40.2184 90.3501 40.1654C90.3501 40.1108 90.3925 40.0684 90.4471 40.0684H91.2073H91.2091C91.2145 40.0684 91.2181 40.0684 91.2217 40.0684C91.2235 40.0684 91.2269 40.0702 91.2287 40.0702C91.2339 40.0702 91.2357 40.072 91.2393 40.072C91.2411 40.0738 91.2445 40.0738 91.2463 40.0756C91.2515 40.0756 91.2533 40.0792 91.2551 40.0808C91.2587 40.0826 91.2603 40.0844 91.2639 40.086C91.2639 40.086 91.2639 40.086 91.2657 40.086C91.2693 40.0878 91.2693 40.0898 91.2711 40.0914C91.2747 40.0932 91.2763 40.0966 91.2781 40.0984C91.2799 40.1002 91.2817 40.1036 91.2833 40.1054C91.2869 40.1072 91.2885 40.109 91.2903 40.1124C91.2921 40.116 91.2939 40.1194 91.2955 40.1212C91.2955 40.123 91.2973 40.1264 91.2991 40.1282C91.2991 40.1334 91.3009 40.137 91.3009 40.1388C91.3045 40.1424 91.3045 40.144 91.3045 40.1478C91.3063 40.153 91.3063 40.1548 91.3063 40.1584C91.3063 40.1602 91.3063 40.162 91.3063 40.1654C91.3063 40.1706 91.3063 40.1742 91.3063 40.1778C91.3045 40.1814 91.3045 40.183 91.3045 40.1848C91.3045 40.19 91.3009 40.1918 91.3009 40.1954C91.2991 40.199 91.2991 40.2006 91.2973 40.2062C91.2955 40.208 91.2955 40.2098 91.2937 40.2114C91.2919 40.215 91.2901 40.2184 91.2885 40.2202C91.2885 40.2242 91.2885 40.2242 91.2885 40.2242Z" fill="white"/>
<path d="M86.9489 38.404H86.5203L86.4337 38.6332C86.4179 38.672 86.3807 38.695 86.3421 38.695C86.3295 38.695 86.3191 38.6932 86.3085 38.6898C86.2573 38.6704 86.2327 38.614 86.2503 38.5628L86.6401 37.5238C86.6559 37.4852 86.6947 37.4604 86.7337 37.462C86.7741 37.4602 86.8113 37.485 86.8271 37.5238L87.2169 38.5628C87.2345 38.614 87.2099 38.6704 87.1587 38.6898C87.1499 38.6934 87.1377 38.695 87.1253 38.695C87.0865 38.695 87.0493 38.6722 87.0353 38.6332L86.9489 38.404ZM86.8767 38.2098L86.7339 37.8306L86.5909 38.2098H86.8767Z" fill="white"/>
<path d="M87.9209 38.1552C87.9209 38.097 87.9685 38.0496 88.0251 38.0496H88.3567C88.4131 38.0496 88.4609 38.097 88.4609 38.1552C88.4609 38.2116 88.4133 38.2594 88.3567 38.2594H88.0251C87.9685 38.2592 87.9209 38.2116 87.9209 38.1552Z" fill="white"/>
<path d="M89.4306 38.598C89.4306 38.651 89.3864 38.695 89.3352 38.695C89.2806 38.695 89.2382 38.6508 89.2382 38.598V37.5732C89.2382 37.5732 89.2382 37.5732 89.2382 37.5714C89.2364 37.5416 89.2504 37.5096 89.277 37.4904C89.3212 37.4604 89.381 37.4692 89.411 37.5114L89.9808 38.2998V37.573C89.9808 37.5218 90.0232 37.4776 90.0762 37.4776C90.1292 37.4776 90.1732 37.5218 90.1732 37.573V38.5978C90.1732 38.6508 90.129 38.6948 90.0762 38.6948C90.048 38.6948 90.0216 38.6808 90.004 38.6594C90.0004 38.6558 89.997 38.6524 89.9952 38.6488L89.4308 37.8656V38.598H89.4306Z" fill="white"/>
<path d="M53.3707 12.1509L51.0515 24.3882L54.3952 25.0219L56.7143 12.7846L53.3707 12.1509Z" fill="#E8C245"/>
<path d="M56.0157 13.6543L55.6351 15.6599C55.6057 15.6537 55.5743 15.6505 55.5429 15.6505C55.3217 15.6505 55.1371 15.8067 55.0921 16.0143L53.6967 15.7501C53.7041 15.7177 53.7083 15.6851 53.7083 15.6505C53.7083 15.4229 53.5437 15.2333 53.3257 15.1965L53.7073 13.1899C53.7387 13.1973 53.7713 13.2003 53.8047 13.2003C54.0207 13.2003 54.2031 13.0515 54.2523 12.8501L55.6477 13.1143C55.6425 13.1415 55.6393 13.1709 55.6393 13.2003C55.6393 13.4269 55.8009 13.6145 56.0157 13.6543Z" stroke="white" stroke-width="0.25" stroke-miterlimit="10"/>
<path d="M56.7138 12.7834L54.3948 25.0208" stroke="#0F1109" stroke-width="0.25" stroke-miterlimit="10" stroke-linecap="round"/>
<path d="M53.3703 12.1499L51.0513 24.3873" stroke="#0F1109" stroke-width="0.25" stroke-miterlimit="10" stroke-linecap="round"/>
<path d="M52.583 16.0309L48.8511 14.8765L46.0712 23.8632L49.8032 25.0176L52.583 16.0309Z" fill="#78CD72"/>
<path d="M51.2059 18.449L51.8313 16.4277L49.2459 15.6277L48.6204 17.6489L51.2059 18.449Z" stroke="white" stroke-width="0.25" stroke-miterlimit="10"/>
<path d="M50.3238 21.2998L50.9492 19.2788L48.3638 18.4788L47.7384 20.4998L50.3238 21.2998Z" stroke="white" stroke-width="0.25" stroke-miterlimit="10"/>
<path d="M49.4417 24.1511L50.0671 22.1299L47.4817 21.3299L46.8563 23.3511L49.4417 24.1511Z" stroke="white" stroke-width="0.25" stroke-miterlimit="10"/>
<path d="M48.8519 14.8792L46.0715 23.8662" stroke="#0F1109" stroke-width="0.25" stroke-miterlimit="10" stroke-linecap="round"/>
<path d="M52.5785 16.0427L49.7981 25.0297" stroke="#0F1109" stroke-width="0.25" stroke-miterlimit="10" stroke-linecap="round"/>
<path d="M83.1811 20.9331H57.7053V25.0207H83.1811V20.9331Z" fill="#E06F5B"/>
<path d="M82.0436 21.7H78.2788V24.2308H82.0436V21.7Z" fill="white"/>
<path d="M81.7963 21.9333H78.5261V22.6777H81.7963V21.9333Z" fill="black"/>
<path d="M81.7963 22.5933H78.5261V23.3377H81.7963V22.5933Z" fill="#E06F5B"/>
<path d="M81.7963 23.2532H78.5261V23.9976H81.7963V23.2532Z" fill="#E8C245"/>
<path d="M58.5605 21.5359V24.5033" stroke="white" stroke-width="0.25" stroke-miterlimit="10"/>
<path d="M59.261 21.5359V24.5033" stroke="white" stroke-width="0.25" stroke-miterlimit="10"/>
<path d="M59.9614 21.5359V24.5033" stroke="white" stroke-width="0.25" stroke-miterlimit="10"/>
<path d="M73.5549 19.2735C73.5549 19.7311 73.3693 20.1461 73.0685 20.4471C72.7677 20.7479 72.3527 20.9335 71.8941 20.9335H58.5605V17.6125H71.8941C72.8113 17.6125 73.5549 18.3561 73.5549 19.2735Z" fill="#857FF0"/>
<path d="M58.5605 20.5363V18.0095H71.8587C72.5751 18.0095 73.1579 18.5763 73.1579 19.2733C73.1579 19.6103 73.0227 19.9273 72.7773 20.1661C72.5319 20.4047 72.2057 20.5363 71.8585 20.5363H58.5605Z" fill="white"/>
<path d="M77.4542 19.2735C77.4542 19.7311 77.2686 20.1461 76.9678 20.4471C76.667 20.7479 76.252 20.9335 75.7934 20.9335H61.8926V20.9205C62.2708 20.8759 62.6094 20.7031 62.8646 20.4469C63.1654 20.1461 63.351 19.7311 63.351 19.2733C63.351 18.4245 62.7146 17.7235 61.8926 17.6253V17.6123H75.7934C76.7106 17.6125 77.4542 18.3561 77.4542 19.2735Z" fill="#857FF0"/>
<path d="M62.6022 20.0452L62.0762 19.6482L61.55 20.0452V18.6582H62.6022V20.0452Z" fill="#E06F5B"/>
<path d="M62.8196 18.0554C62.8196 18.0554 63.9704 19.109 62.8644 20.4468" stroke="#0F1109" stroke-width="0.25" stroke-miterlimit="10" stroke-linecap="round"/>
<path d="M75.7931 20.9333H58.5605V17.6125" stroke="#0F1109" stroke-width="0.25" stroke-miterlimit="10" stroke-linecap="round"/>
<path d="M62.6024 18.6582H59.1484" stroke="#0F1109" stroke-width="0.25" stroke-miterlimit="10" stroke-linecap="round"/>
<path d="M58.0876 13.0196C58.0876 13.4772 58.2732 13.8922 58.574 14.1932C58.8748 14.4942 59.2898 14.6796 59.7484 14.6796H73.082V11.3586H59.7484C58.8314 11.3586 58.0876 12.1022 58.0876 13.0196Z" fill="#E06F5B"/>
<path d="M73.0823 14.2825V11.7559H59.7841C59.0677 11.7559 58.4849 12.3227 58.4849 13.0197C58.4849 13.3567 58.6201 13.6737 58.8655 13.9125C59.1109 14.1511 59.4371 14.2827 59.7843 14.2827L73.0823 14.2825Z" fill="white"/>
<path d="M58.0876 13.0196C58.0876 13.4772 58.2732 13.8922 58.574 14.1932C58.8748 14.4942 59.2898 14.6796 59.7484 14.6796H69.75V14.6666C69.3718 14.622 69.0332 14.4492 68.778 14.193C68.4772 13.8922 68.2917 13.4772 68.2917 13.0194C68.2917 12.1706 68.928 11.4696 69.75 11.3714V11.3584H59.7484C58.8314 11.3586 58.0876 12.1022 58.0876 13.0196Z" fill="#E06F5B"/>
<path d="M69.0403 13.7915L69.5665 13.3943L70.0927 13.7915V12.4043H69.0403V13.7915Z" fill="#E8C245"/>
<path d="M68.9085 11.7559C68.9085 11.7559 67.5375 12.7533 68.8749 14.2827" stroke="#0F1109" stroke-width="0.25" stroke-miterlimit="10" stroke-linecap="round"/>
<path d="M69.0403 12.4043H72.5829" stroke="#0F1109" stroke-width="0.25" stroke-miterlimit="10" stroke-linecap="round"/>
<path d="M64.4867 12.2871H60.5117" stroke="white" stroke-width="0.25" stroke-miterlimit="10"/>
<path d="M64.4867 13.0867H60.5117" stroke="white" stroke-width="0.25" stroke-miterlimit="10"/>
<path d="M64.4867 13.8857H60.5117" stroke="white" stroke-width="0.25" stroke-miterlimit="10"/>
<path d="M73.0823 11.7559V14.2825" stroke="#0F1109" stroke-width="0.25" stroke-miterlimit="10" stroke-linecap="round"/>
<path d="M74.2253 14.6624H56.4045V17.5868H74.2253V14.6624Z" fill="#78CD72"/>
<path d="M73.2919 14.6794H56.6143" stroke="#0F1109" stroke-width="0.25" stroke-miterlimit="10" stroke-linecap="round"/>
<path d="M74.2253 17.5867L56.6143 17.6123" stroke="#0F1109" stroke-width="0.25" stroke-miterlimit="10" stroke-linecap="round"/>
<path d="M60.3708 15.2126H57.4338V17.1868H60.3708V15.2126Z" fill="white"/>
<path d="M57.6152 15.3627V17.0361H58.5434V15.3627H57.6152Z" fill="#78CD72"/>
<path d="M58.438 15.363V17.0364H59.3662V15.363H58.438Z" fill="white"/>
<path d="M59.261 15.3627V17.0361H60.1892V15.3627H59.261Z" fill="#E06F5B"/>
<path d="M26.5454 49.3251C26.5914 49.3172 26.6413 49.3221 26.6951 49.3399C26.7516 49.3538 26.7964 49.3782 26.8295 49.4131L28.3446 51.0492L28.0966 51.0819L29.0072 49.0374C29.0543 48.9379 29.1272 48.8797 29.2257 48.8627C29.3045 48.8491 29.38 48.8648 29.452 48.9099C29.524 48.955 29.5677 49.0219 29.583 49.1106L30.0752 51.9633C30.0899 52.0487 30.0744 52.1258 30.0288 52.1945C29.9826 52.26 29.9135 52.3007 29.8215 52.3165C29.7296 52.3324 29.6492 52.3175 29.5805 52.2719C29.5144 52.2224 29.474 52.1549 29.4593 52.0695L29.0589 49.7489L29.2587 49.7601L28.518 51.4658C28.4947 51.507 28.4623 51.5448 28.4208 51.579C28.3826 51.6126 28.3403 51.6318 28.2937 51.6364C28.2516 51.6471 28.2053 51.6432 28.1548 51.6249C28.1075 51.606 28.066 51.581 28.0302 51.55L26.8325 50.2244L26.9155 49.9411L27.3456 52.4342C27.3603 52.5196 27.3465 52.5964 27.3042 52.6646C27.2613 52.7295 27.1971 52.7693 27.1117 52.784C27.0296 52.7982 26.9574 52.7819 26.8952 52.7351C26.8325 52.6851 26.7937 52.6173 26.779 52.5319L26.2869 49.6792C26.2727 49.5971 26.2901 49.5214 26.339 49.452C26.3912 49.3822 26.46 49.3398 26.5454 49.3251ZM31.8149 48.4211C32.1302 48.3667 32.3778 48.4001 32.5577 48.5213C32.7376 48.6424 32.8524 48.8476 32.9023 49.1366C32.9289 49.291 32.9147 49.4338 32.8595 49.5651C32.8038 49.6931 32.7077 49.8027 32.5712 49.8939C32.4342 49.9818 32.2573 50.0444 32.0405 50.0818L32.022 49.8567C32.1238 49.8392 32.2429 49.8338 32.3794 49.8407C32.5153 49.8443 32.6503 49.8718 32.7843 49.9231C32.921 49.9705 33.0398 50.0515 33.1408 50.166C33.2444 50.2767 33.3133 50.4305 33.3473 50.6276C33.3847 50.8444 33.3791 51.028 33.3307 51.1784C33.2855 51.3283 33.2119 51.4509 33.11 51.5463C33.0081 51.6417 32.894 51.7155 32.7677 51.7677C32.6408 51.8166 32.5166 51.8516 32.3951 51.8726L31.1683 52.0842C31.0829 52.0989 31.0058 52.0835 30.937 52.0378C30.871 51.9884 30.8306 51.9209 30.8159 51.8355L30.3246 48.9877C30.3098 48.9023 30.3256 48.8269 30.3718 48.7614C30.4207 48.6921 30.4879 48.65 30.5733 48.6353L31.8149 48.4211ZM31.8265 49.0178L30.9495 49.1691L30.9999 49.0792L31.1538 49.971L31.087 49.9369L31.9739 49.7839C32.0691 49.7674 32.1491 49.7215 32.2139 49.646C32.2787 49.5706 32.3009 49.4738 32.2805 49.3555C32.2561 49.2143 32.2024 49.1187 32.1194 49.0687C32.0391 49.0149 31.9414 48.998 31.8265 49.0178ZM32.0988 50.361L31.2021 50.5157L31.2396 50.4686L31.419 51.5082L31.3612 51.4674L32.2973 51.3059C32.4484 51.2799 32.5615 51.2198 32.6366 51.1256C32.7111 51.0282 32.7345 50.8991 32.7067 50.7381C32.6812 50.5903 32.6333 50.4886 32.5628 50.4331C32.4923 50.3777 32.4146 50.3488 32.3297 50.3465C32.2447 50.3443 32.1678 50.3491 32.0988 50.361ZM34.9009 48.6853L34.2685 51.3718C34.2563 51.4382 34.2287 51.4937 34.1856 51.5383C34.1453 51.5791 34.0972 51.6043 34.0414 51.6139C33.9527 51.6292 33.8828 51.6159 33.8315 51.574C33.7803 51.5321 33.7485 51.475 33.736 51.4028C33.7309 51.3732 33.7305 51.3411 33.7347 51.3066L34.4532 48.1486C34.4681 48.0784 34.4988 48.0207 34.5451 47.9755C34.5947 47.9297 34.6513 47.9047 34.7148 47.9005C34.7739 47.8903 34.8313 47.899 34.8868 47.9267C34.945 47.9504 34.991 47.9916 35.0247 48.05L36.7349 50.7281C36.7587 50.768 36.7737 50.806 36.7799 50.8421C36.7952 50.9308 36.7778 51.0065 36.7278 51.0693C36.681 51.1315 36.6231 51.1685 36.5541 51.1804C36.495 51.1906 36.4377 51.1819 36.3822 51.1543C36.33 51.1261 36.2854 51.083 36.2483 51.0251L34.7632 48.7395L34.9009 48.6853ZM34.3175 50.7443L34.4908 50.131L35.8211 49.9015L36.0124 50.4519L34.3175 50.7443Z" fill="white"/>
</g>
<defs>
<clipPath id="clip0_216_1242">
<rect width="100" height="100" fill="white"/>
</clipPath>
</defs>
</svg>
