<svg width="128" height="128" viewBox="0 0 128 128" fill="none" xmlns="http://www.w3.org/2000/svg">
<path d="M118.03 102.32L72.29 123C69.47 124.33 66.53 124.2 63.83 122.64L6.08998 93.32C4.43998 92.26 3.94998 90.71 4.04998 89.63C4.14998 88.55 4.39998 87.38 7.29998 86.54L11.58 84.96L69.5 116.53L110.66 99.71L118.03 102.32Z" fill="#01579B"/>
<path d="M71.74 119.69C70.5962 120.226 69.3411 120.483 68.0786 120.438C66.816 120.392 65.5824 120.047 64.48 119.43L8.10999 91.0299C7.30999 90.5899 7.06999 89.5799 7.54999 88.7999C8.78999 86.7499 11.07 80.2699 7.30999 74.8899L70.97 105.54L71.74 119.69Z" fill="#F5F5F5"/>
<path d="M115.59 99.9799L71.7398 119.69C70.2898 120.32 67.3998 121.44 64.0698 119.2C66.6998 119.39 68.5498 118.3 69.4998 116.53C70.4298 114.81 70.1498 111.99 69.0198 110.4C68.3298 109.44 66.4798 107.91 65.6698 107.05L113.1 88.4999C117.3 86.7699 121.24 89.3599 121.87 92.5099C122.57 96.0699 118.03 98.9799 115.59 99.9799Z" fill="#94C6D6"/>
<path d="M117.78 86.9599L72.5101 107.16C69.6601 108.29 66.4701 108.14 63.7401 106.76L5.90011 77.3799C5.34011 77.0999 4.51011 76.3299 4.18011 75.2799C3.64011 73.5299 4.32011 71.3299 6.37011 70.6299L69.0501 102.58L111.97 84.2099L117.78 86.9599Z" fill="#01579B"/>
<path d="M121.19 89.89L116.26 88.1L106.1 88.69L72.5202 103.68C69.6702 104.81 66.4802 104.66 63.7502 103.28L5.90019 73.91C4.41019 73.15 4.73019 70.94 6.37019 70.63L48.0602 51.98C49.2502 51.76 50.4702 51.89 51.5802 52.36L111.07 80.72C111.07 80.72 120.52 87.19 121.19 89.89Z" fill="#0091EA"/>
<path d="M105.53 88.9801C105.53 88.9801 111.79 86.5301 116.71 86.7501C121.63 86.9701 123.34 90.4201 123.34 90.4201C122.41 86.1901 118.04 84.0301 118.04 84.0301L53.0398 51.3001C52.5898 51.1101 50.9298 50.7201 48.3798 51.7701C46.3198 52.6201 39.5898 55.7701 39.5898 55.7701L105.53 88.9801Z" fill="#616161"/>
<path d="M123.62 91.22C123.15 89.35 121.99 87.35 119.85 86.38C117.03 85.11 113.01 85.44 110.44 86.78L105.53 88.96V92.42L111.74 89.66C117.78 86.97 120.46 91 120.69 91.95C121.65 95.82 119.79 98.06 114.3 100.58L105.38 104.6V108.08L115.64 103.51C120.18 101.69 125.36 98.27 123.62 91.22Z" fill="#424242"/>
<path d="M33.0102 90.31L15.7402 66.44L18.4502 65.23L37.8802 91.93L33.0102 90.31ZM55.1602 101.31L52.0802 98.87L105.53 87.96V89.71L98.0402 92.55L55.1602 101.31Z" fill="#01579B"/>
<path d="M14.7998 46.1799L82.3098 34.8999L111.8 67.3699C113.29 68.9399 112.48 71.5399 110.36 71.9699L40.6598 86.2699L14.7998 46.1799Z" fill="#9CCC65"/>
<path d="M110.36 69.17L41.1399 83.19L40.9199 86.49L110.36 72.25C112.32 71.84 113.14 69.6 112.07 68.02C111.69 68.58 111.11 69.02 110.36 69.17ZM114.09 84.3C114.82 85.46 114.16 86.99 112.82 87.26L49.0999 100.18C45.2699 100.97 41.5099 98.46 41.1699 94.56C40.8799 91.26 43.1099 88.27 46.3599 87.59L107.64 73.83L114.09 84.3Z" fill="#689F38"/>
<path d="M55.5901 80.1L30.2101 43.78L15.7301 47.61C12.3801 50.94 13.6301 56.41 13.6301 56.41C13.6301 56.41 35.8001 91.99 39.3001 96.54C42.8001 101.09 47.9101 100.38 47.9101 100.38L56.5401 98.64L55.6401 82.54L55.5901 80.1Z" fill="#616161"/>
<path d="M55.5902 80.3401L43.4002 82.8601C40.0702 83.6101 39.4702 86.7401 39.4702 86.7401L10.0402 44.5701C10.0402 44.5701 5.85024 49.6401 8.63024 53.9501L39.3002 96.5401C42.6502 101.31 47.9102 100.42 47.9102 100.42L56.5402 98.6801L55.6502 82.9001L55.5902 80.3401Z" fill="#424242"/>
<path d="M110.25 83C110.56 83.68 110.16 84.47 109.43 84.62L48.4999 97.12C44.6699 97.91 41.9599 95.37 42.0999 91.91C42.2799 87.54 44.7299 85.69 47.9699 85.02L109.2 72.51C109.2 72.51 107.12 74.85 108.71 79.23C109.25 80.74 109.83 82.08 110.25 83Z" fill="#B9E4EA"/>
<path d="M45.2101 83.7L19.1001 46.76" stroke="#424242" stroke-width="2.071" stroke-miterlimit="10"/>
<path d="M47.2598 67.95L13.6798 51.03L12.3198 53.71L51.1198 73.48L47.2598 67.95Z" fill="#424242"/>
<path d="M108.79 64.0301L106.33 61.3301L68.4998 78.6901L47.2598 68.1801L50.8798 73.3601L64.9498 80.5501L75.4298 78.9401L108.79 64.0301Z" fill="#689F38"/>
<path d="M118.02 57.3501L72.29 78.0301C69.47 79.3601 66.53 79.2301 63.83 77.6701L6.08998 48.3501C4.43998 47.2901 3.94998 45.7401 4.04998 44.6601C4.14998 43.5801 4.39998 42.4101 7.29998 41.5701L10.01 40.5701L69.33 69.6801L117.5 49.7501L118.02 57.3501Z" fill="#C62828"/>
<path d="M71.7302 74.7199C70.5865 75.2565 69.3313 75.5128 68.0688 75.4676C66.8063 75.4223 65.5727 75.0769 64.4702 74.4599L8.10023 46.0599C7.30023 45.6199 7.06023 44.6099 7.54023 43.8299C8.78023 41.7799 11.0602 35.2999 7.30023 29.9199L69.5402 61.5799L71.7302 74.7199Z" fill="#F5F5F5"/>
<path d="M115.58 55.0099L71.7301 74.7199C70.2801 75.3499 67.3901 76.4699 64.0601 74.2299C66.6901 74.4199 68.5401 73.3299 69.4901 71.5599C70.4201 69.8399 70.1401 67.0199 69.0101 65.4299C68.3201 64.4699 66.4701 62.9399 65.6601 62.0799L113.09 43.5299C117.29 41.7999 121.23 44.3899 121.86 47.5399C122.56 51.0999 118.02 54.0099 115.58 55.0099Z" fill="#94C6D6"/>
<path d="M117.78 41.9899L72.51 62.1899C69.66 63.3199 66.47 63.1699 63.74 61.7899L5.88997 32.4099C5.28997 32.1099 4.38997 31.3399 4.09997 30.2499C3.66997 28.6299 4.22997 26.4999 6.35997 25.6599L59.37 14.4299L117.78 41.9899Z" fill="#C62828"/>
<path d="M121.18 44.92L116.25 43.13L106.09 43.72L72.51 58.71C69.66 59.84 66.47 59.69 63.74 58.31L5.88997 28.93C4.39997 28.17 4.92997 26.16 6.35997 25.65L48.06 7.01003C49.25 6.79003 50.47 6.92003 51.58 7.39003L111.07 35.75C111.07 35.75 120.51 42.21 121.18 44.92Z" fill="#F44336"/>
<path d="M105.53 44.0001C105.53 44.0001 110.74 42.1701 115.66 42.3901C120.58 42.6101 123.35 45.4401 123.35 45.4401C122.34 40.9201 118.05 39.0501 118.05 39.0501L53.0501 6.32009C52.6001 6.13009 50.9401 5.74009 48.3901 6.79009C46.3301 7.64009 39.6001 10.7901 39.6001 10.7901L105.53 44.0001Z" fill="#616161"/>
<path d="M111.48 41.8601L44.9702 8.31007L47.1702 7.32007L114.81 41.2201L111.48 41.8601Z" fill="#424242"/>
<path d="M123.61 46.2501C123.14 44.3801 122.35 42.5701 120.12 41.6301C117.27 40.4301 114.67 40.1801 110.43 41.8101L105.52 43.9901V47.4501L111.73 44.6901C114.88 43.2101 119.52 43.5301 120.68 46.9801C121.95 50.7601 119.78 53.0901 114.29 55.6101L105.37 59.6301V63.1101L115.63 58.5401C120.18 56.7201 125.36 53.3001 123.61 46.2501Z" fill="#424242"/>
</svg>
