<svg width="128" height="128" viewBox="0 0 128 128" fill="none" xmlns="http://www.w3.org/2000/svg">
<path d="M32.0398 123.67C31.3655 123.331 30.8368 122.76 30.5518 122.061C30.2668 121.362 30.2448 120.584 30.4898 119.87L34.5098 108.1L42.3798 113.41L36.0198 122.65C35.5906 123.271 34.9516 123.716 34.2204 123.903C33.4891 124.091 32.7148 124.008 32.0398 123.67ZM95.3598 123.67C96.7498 122.97 97.4198 121.35 96.9098 119.87L92.8398 107.96L84.5498 112.73L91.3798 122.65C91.8091 123.271 92.448 123.716 93.1793 123.903C93.9105 124.091 94.6848 124.008 95.3598 123.67Z" fill="#82AEC0"/>
<path d="M34.51 108.1L32.46 114.1C33.73 113.37 35.39 113.44 36.71 114.09C38.03 114.74 39.04 115.88 39.81 117.14L42.14 113.76C42.14 113.62 34.51 108.1 34.51 108.1ZM92.87 107.95L95.09 114.55C93.82 113.82 92.3 113.84 90.97 114.49C89.65 115.14 88.64 116.28 87.87 117.54L84.82 113.11L92.87 107.95Z" fill="#2F7889"/>
<path d="M63.6999 115.94C86.9014 115.94 105.71 97.1314 105.71 73.9299C105.71 50.7284 86.9014 31.9199 63.6999 31.9199C40.4985 31.9199 21.6899 50.7284 21.6899 73.9299C21.6899 97.1314 40.4985 115.94 63.6999 115.94Z" fill="#FFEFA1"/>
<path d="M63.6998 119.58C90.9606 119.58 113.06 97.4809 113.06 70.2201C113.06 42.9593 90.9606 20.8601 63.6998 20.8601C36.4391 20.8601 14.3398 42.9593 14.3398 70.2201C14.3398 97.4809 36.4391 119.58 63.6998 119.58Z" fill="#CC2929"/>
<path d="M63.6998 119.1C89.3258 119.1 110.1 98.3261 110.1 72.7C110.1 47.074 89.3258 26.3 63.6998 26.3C38.0738 26.3 17.2998 47.074 17.2998 72.7C17.2998 98.3261 38.0738 119.1 63.6998 119.1Z" fill="#FF4638"/>
<path d="M63.6999 112.73C85.8079 112.73 103.73 94.8079 103.73 72.6999C103.73 50.592 85.8079 32.6699 63.6999 32.6699C41.592 32.6699 23.6699 50.592 23.6699 72.6999C23.6699 94.8079 41.592 112.73 63.6999 112.73Z" fill="#FAFAFA"/>
<path d="M63.9998 77.15C66.4575 77.15 68.4498 75.1577 68.4498 72.7C68.4498 70.2423 66.4575 68.25 63.9998 68.25C61.5421 68.25 59.5498 70.2423 59.5498 72.7C59.5498 75.1577 61.5421 77.15 63.9998 77.15Z" fill="#563428"/>
<path d="M63.7002 42.57C62.8902 42.57 62.2302 41.91 62.2302 41.1V36.7C62.2302 35.89 62.8902 35.23 63.7002 35.23C64.5102 35.23 65.1702 35.89 65.1702 36.7V41.1C65.1702 41.91 64.5102 42.57 63.7002 42.57ZM63.7002 110.16C62.8902 110.16 62.2302 109.5 62.2302 108.69V104.29C62.2302 103.48 62.8902 102.82 63.7002 102.82C64.5102 102.82 65.1702 103.48 65.1702 104.29V108.69C65.1702 109.5 64.5102 110.16 63.7002 110.16ZM99.6902 74.16H95.2902C94.4802 74.16 93.8202 73.5 93.8202 72.69C93.8202 71.88 94.4802 71.22 95.2902 71.22H99.6902C100.5 71.22 101.16 71.88 101.16 72.69C101.16 73.51 100.5 74.16 99.6902 74.16ZM32.1102 74.16H27.7102C26.9002 74.16 26.2402 73.5 26.2402 72.69C26.2402 71.88 26.9002 71.22 27.7102 71.22H32.1102C32.9202 71.22 33.5802 71.88 33.5802 72.69C33.5802 73.51 32.9202 74.16 32.1102 74.16Z" fill="#B2947C"/>
<path d="M63.7 42.57C62.89 42.57 62.23 41.91 62.23 41.1V36.7C62.23 35.89 62.89 35.23 63.7 35.23C64.51 35.23 65.17 35.89 65.17 36.7V41.1C65.17 41.91 64.51 42.57 63.7 42.57ZM63.7 110.16C62.89 110.16 62.23 109.5 62.23 108.69V104.29C62.23 103.48 62.89 102.82 63.7 102.82C64.51 102.82 65.17 103.48 65.17 104.29V108.69C65.17 109.5 64.51 110.16 63.7 110.16ZM46.63 46.07L44.43 42.26C44.02 41.56 44.26 40.66 44.97 40.25C45.67 39.84 46.57 40.08 46.98 40.79L49.18 44.6C49.59 45.3 49.35 46.2 48.64 46.61C47.94 47.01 47.04 46.77 46.63 46.07ZM80.43 104.6L78.23 100.79C77.82 100.09 78.07 99.19 78.77 98.78C79.47 98.37 80.37 98.62 80.78 99.32L82.98 103.13C83.39 103.83 83.14 104.73 82.44 105.14C81.73 105.54 80.83 105.3 80.43 104.6Z" fill="#B2947C"/>
<path d="M46.6298 46.0701L44.4298 42.2601C44.0198 41.5601 44.2598 40.6601 44.9698 40.2501C45.6698 39.8401 46.5698 40.0801 46.9798 40.7901L49.1798 44.6001C49.5898 45.3001 49.3498 46.2001 48.6398 46.6101C47.9398 47.0101 47.0398 46.7701 46.6298 46.0701ZM80.4298 104.6L78.2299 100.79C77.8199 100.09 78.0698 99.1901 78.7698 98.7801C79.4698 98.3701 80.3698 98.6201 80.7798 99.3201L82.9799 103.13C83.3899 103.83 83.1398 104.73 82.4398 105.14C81.7298 105.54 80.8298 105.3 80.4298 104.6ZM35.6098 58.1701L31.7998 55.9701C31.0998 55.5601 30.8598 54.6701 31.2598 53.9601C31.6698 53.2601 32.5598 53.0201 33.2698 53.4201L37.0798 55.6201C37.7798 56.0301 38.0198 56.9201 37.6198 57.6301C37.2098 58.3401 36.3098 58.5801 35.6098 58.1701ZM94.1398 91.9601L90.3298 89.7601C89.6298 89.3501 89.3898 88.4601 89.7898 87.7501C90.1998 87.0501 91.0899 86.8101 91.7999 87.2101L95.6098 89.4101C96.3098 89.8201 96.5498 90.7101 96.1498 91.4201C95.7398 92.1301 94.8398 92.3701 94.1398 91.9601ZM78.7598 46.6101C78.0598 46.2001 77.8198 45.3101 78.2198 44.6001L80.4198 40.7901C80.8298 40.0901 81.7198 39.8501 82.4298 40.2501C83.1298 40.6601 83.3698 41.5501 82.9698 42.2601L80.7698 46.0701C80.3598 46.7701 79.4698 47.0101 78.7598 46.6101ZM44.9698 105.14C44.2698 104.73 44.0298 103.84 44.4298 103.13L46.6298 99.3201C47.0398 98.6201 47.9298 98.3801 48.6398 98.7801C49.3398 99.1901 49.5798 100.08 49.1798 100.79L46.9798 104.6C46.5698 105.3 45.6698 105.54 44.9698 105.14ZM89.7898 57.6301C89.3798 56.9301 89.6198 56.0301 90.3298 55.6201L94.1398 53.4201C94.8398 53.0101 95.7398 53.2601 96.1498 53.9601C96.5598 54.6601 96.3098 55.5601 95.6098 55.9701L91.7999 58.1701C91.0899 58.5801 90.1898 58.3401 89.7898 57.6301ZM31.2598 91.4301C30.8498 90.7301 31.0998 89.8301 31.7998 89.4201L35.6098 87.2201C36.3098 86.8101 37.2098 87.0601 37.6198 87.7601C38.0298 88.4601 37.7798 89.3601 37.0798 89.7701L33.2698 91.9701C32.5598 92.3701 31.6598 92.1301 31.2598 91.4301Z" fill="#B2947C"/>
<path d="M47.4902 63.49L63.7002 72.7" stroke="#563428" stroke-width="5" stroke-miterlimit="10" stroke-linecap="round"/>
<path d="M86.8699 59.4099L64.4399 72.6999" stroke="#563428" stroke-width="3.5" stroke-miterlimit="10" stroke-linecap="round"/>
<path d="M91.9901 32.4901L87.8501 29.7801L101.94 4.82007L106.24 7.25007L91.9901 32.4901Z" fill="#82AEC0"/>
<path d="M111.17 35.21C112.4 35.57 113.72 34.89 114.1 33.67C117.34 23.32 113.14 12.06 102.98 6.83004C92.75 1.56004 81.64 5.02005 75.17 13.85C74.44 14.84 74.61 16.23 75.53 17.04C77.62 18.89 82.26 22.37 91.51 27.05C101.28 31.99 107.98 34.27 111.17 35.21Z" fill="#CC2929"/>
<path d="M105.85 10.3C105.85 10.3 108.46 6.96997 104.67 4.85997C101.72 3.21997 99.8499 6.80997 99.8499 6.80997C99.1999 7.99997 105.4 11.12 105.85 10.3ZM35.6299 32.52L21.3599 7.24997L25.6699 4.81997L39.5299 29.38L35.6299 32.52Z" fill="#82AEC0"/>
<path d="M16.8302 35.21C15.6002 35.57 14.2802 34.89 13.9002 33.67C10.6602 23.32 14.8602 12.06 25.0202 6.83004C35.2502 1.56004 46.3602 5.02005 52.8302 13.85C53.5602 14.84 53.3902 16.23 52.4702 17.04C50.3802 18.89 45.7402 22.37 36.4902 27.05C26.7202 31.99 20.0202 34.27 16.8302 35.21Z" fill="#CC2929"/>
<path d="M22.15 10.3C22.15 10.3 19.54 6.96997 23.33 4.85997C26.28 3.21997 28.15 6.80997 28.15 6.80997C28.8 7.99997 22.6 11.12 22.15 10.3Z" fill="#82AEC0"/>
<path d="M63.7002 23.22V9.5" stroke="#82AEC0" stroke-width="3.706" stroke-miterlimit="10"/>
<path d="M63.7602 14.38C59.8402 14.38 55.9102 12.88 55.9102 12.88V9.91003C55.9102 9.91003 59.5602 8.28003 63.9502 8.28003C68.3402 8.28003 71.6002 9.91003 71.6002 9.91003V12.88C71.6102 12.89 67.6902 14.38 63.7602 14.38Z" fill="#82AEC0"/>
<path d="M56.8999 9.79009C56.4699 9.95009 56.4299 10.5401 56.8299 10.7701C57.4099 11.1001 58.0999 11.4401 58.3399 11.4001C61.6399 10.8901 66.4299 11.1401 69.7399 11.6401C69.9699 11.6801 70.6299 11.1201 71.0999 10.7001C71.3599 10.4601 71.2999 10.0501 70.9799 9.90009C69.9399 9.43009 67.5899 8.59009 63.9499 8.59009C60.5899 8.59009 58.1599 9.30009 56.8999 9.79009Z" fill="#94D1E0"/>
<path d="M95.0601 7.90004C95.3701 8.96004 94.2301 9.83004 93.3101 10.44C90.9907 11.9982 89.127 14.1448 87.9101 16.66C87.3301 17.86 86.6801 19.33 85.3501 19.52C84.8201 19.59 84.3001 19.43 83.8001 19.25C83.0301 18.97 82.2801 18.65 81.5501 18.28C80.6801 17.84 79.7901 17.28 79.3901 16.39C78.8701 15.22 79.3601 13.84 80.0601 12.76C81.7301 10.21 84.4501 8.63004 87.2501 7.59004C88.9401 6.96004 94.2201 5.03004 95.0601 7.90004ZM26.1301 16.33C26.7801 17.68 27.5101 18.99 28.3201 20.25C29.3101 21.79 30.4601 23.51 30.0401 25.29C29.5501 27.33 27.2901 28.31 25.3001 28.99C24.2801 29.34 23.2701 29.69 22.2501 30.04C21.7101 30.23 21.1401 30.42 20.5701 30.39C19.6701 30.35 18.8601 29.78 18.3501 29.05C17.8301 28.32 17.5701 27.44 17.3701 26.57C16.6201 23.22 16.7701 19.67 17.8001 16.39C18.4001 14.51 19.3401 12.53 21.4701 12.38C24.0601 12.2 25.1601 14.31 26.1301 16.33Z" fill="#FF4638"/>
</svg>
