<svg width="16" height="16" viewBox="0 0 16 16" fill="none" xmlns="http://www.w3.org/2000/svg">
<g clip-path="url(#clip0_474_832)">
<path fill-rule="evenodd" clip-rule="evenodd" d="M10.2284 3.2004C9.86817 3.2004 9.51151 3.27135 9.17873 3.40918C8.84596 3.54702 8.5436 3.74906 8.2889 4.00375C8.03421 4.25844 7.83218 4.56081 7.69434 4.89358C7.5565 5.22635 7.48556 5.58301 7.48556 5.9432C7.48556 6.30339 7.5565 6.66006 7.69434 6.99283C7.83218 7.3256 8.03421 7.62796 8.2889 7.88266C8.5436 8.13735 8.84596 8.33938 9.17873 8.47722C9.51151 8.61506 9.86817 8.686 10.2284 8.686C10.9558 8.686 11.6534 8.39703 12.1678 7.88266C12.6822 7.36828 12.9712 6.67064 12.9712 5.9432C12.9712 5.21577 12.6822 4.51812 12.1678 4.00375C11.6534 3.48937 10.9558 3.2004 10.2284 3.2004ZM6.57129 5.9432C6.57129 4.97329 6.95659 4.0431 7.64242 3.35726C8.32825 2.67143 9.25844 2.28613 10.2284 2.28613C11.1983 2.28613 12.1285 2.67143 12.8143 3.35726C13.5001 4.0431 13.8854 4.97329 13.8854 5.9432C13.8854 6.91312 13.5001 7.84331 12.8143 8.52914C12.1285 9.21497 11.1983 9.60027 10.2284 9.60027C9.25844 9.60027 8.32825 9.21497 7.64242 8.52914C6.95659 7.84331 6.57129 6.91312 6.57129 5.9432Z" fill="black"/>
<path fill-rule="evenodd" clip-rule="evenodd" d="M2 1.82853C2 1.34358 2.19265 0.878482 2.53557 0.535565C2.87848 0.192649 3.34358 0 3.82853 0C4.31349 0 4.77859 0.192649 5.1215 0.535565C5.46442 0.878482 5.65707 1.34358 5.65707 1.82853V4.82002C5.65707 5.73429 5.97706 6.61838 6.56219 7.32054L7.83668 8.85011C7.91086 8.9436 7.94554 9.06238 7.93331 9.18109C7.92108 9.2998 7.86291 9.40903 7.77123 9.48543C7.67955 9.56183 7.56163 9.59934 7.44266 9.58997C7.32369 9.58059 7.2131 9.52506 7.13453 9.43524L5.86004 7.90567C5.13817 7.03946 4.74283 5.94759 4.7428 4.82002V1.82853C4.7428 1.58606 4.64648 1.35351 4.47502 1.18205C4.30356 1.01059 4.07101 0.914267 3.82853 0.914267C3.58606 0.914267 3.35351 1.01059 3.18205 1.18205C3.01059 1.35351 2.91427 1.58606 2.91427 1.82853V5.25704C2.91438 5.9325 3.0808 6.59755 3.39883 7.19346L6.5174 13.042C6.56952 13.1485 6.57825 13.271 6.54176 13.3838C6.50527 13.4965 6.42641 13.5907 6.32181 13.6465C6.21721 13.7022 6.09505 13.7151 5.9811 13.6825C5.86714 13.6499 5.77031 13.5744 5.71101 13.4717L2.59153 7.62316C2.20317 6.89495 2.00002 6.08234 2 5.25704V1.82853Z" fill="black"/>
<path fill-rule="evenodd" clip-rule="evenodd" d="M7.02863 9.14317C7.02863 9.02193 7.07679 8.90566 7.16252 8.81993C7.24825 8.7342 7.36452 8.68604 7.48576 8.68604H9.77143C11.1051 8.68604 12.3841 9.21582 13.3271 10.1588C14.2701 11.1019 14.7999 12.3809 14.7999 13.7145V15.543C14.7999 15.6643 14.7517 15.7806 14.666 15.8663C14.5803 15.952 14.464 16.0002 14.3428 16.0002C14.2215 16.0002 14.1053 15.952 14.0195 15.8663C13.9338 15.7806 13.8856 15.6643 13.8856 15.543V13.7145C13.8856 12.6234 13.4522 11.5769 12.6806 10.8053C11.909 10.0338 10.8626 9.6003 9.77143 9.6003H7.48576C7.36452 9.6003 7.24825 9.55214 7.16252 9.46641C7.07679 9.38068 7.02863 9.26441 7.02863 9.14317ZM6.11436 12.8002C6.2356 12.8002 6.35187 12.8484 6.4376 12.9341C6.52333 13.0199 6.57149 13.1361 6.57149 13.2574V15.543C6.57149 15.6643 6.52333 15.7806 6.4376 15.8663C6.35187 15.952 6.2356 16.0002 6.11436 16.0002C5.99312 16.0002 5.87685 15.952 5.79112 15.8663C5.70539 15.7806 5.65723 15.6643 5.65723 15.543V13.2574C5.65723 13.1361 5.70539 13.0199 5.79112 12.9341C5.87685 12.8484 5.99312 12.8002 6.11436 12.8002Z" fill="black"/>
</g>
<defs>
<clipPath id="clip0_474_832">
<rect width="16" height="16" fill="white"/>
</clipPath>
</defs>
</svg>
