<svg width="14" height="14" viewBox="0 0 14 14" fill="none" xmlns="http://www.w3.org/2000/svg">
<path fill-rule="evenodd" clip-rule="evenodd" d="M6.30726 2.78257C5.84447 2.78257 5.3862 2.87372 4.95864 3.05083C4.53107 3.22793 4.14258 3.48752 3.81533 3.81476C3.48809 4.14201 3.2285 4.5305 3.0514 4.95807C2.87429 5.38564 2.78314 5.8439 2.78314 6.30669C2.78314 6.76949 2.87429 7.22775 3.0514 7.65532C3.2285 8.08288 3.48809 8.47138 3.81533 8.79863C4.14258 9.12587 4.53107 9.38546 4.95864 9.56256C5.3862 9.73966 5.84447 9.83082 6.30726 9.83082C7.24192 9.83082 8.13829 9.45953 8.79919 8.79863C9.46009 8.13772 9.83139 7.24135 9.83139 6.30669C9.83139 5.37204 9.46009 4.47566 8.79919 3.81476C8.13829 3.15386 7.24192 2.78257 6.30726 2.78257ZM2 6.30669C2.00009 5.61497 2.16678 4.93345 2.48596 4.31977C2.80514 3.70609 3.26742 3.17831 3.83371 2.78107C4.4 2.38383 5.05363 2.12882 5.73931 2.03761C6.42499 1.9464 7.12256 2.02167 7.773 2.25706C8.42344 2.49245 9.00762 2.88103 9.47612 3.38993C9.94463 3.89883 10.2837 4.51308 10.4646 5.18073C10.6455 5.84837 10.663 6.54977 10.5155 7.22559C10.368 7.90141 10.0599 8.53176 9.61733 9.06334L12.0659 11.512C12.1044 11.5478 12.1353 11.591 12.1567 11.6391C12.1781 11.6871 12.1896 11.7389 12.1905 11.7915C12.1914 11.8441 12.1818 11.8963 12.1621 11.9451C12.1424 11.9938 12.1131 12.0381 12.0759 12.0753C12.0387 12.1125 11.9944 12.1418 11.9456 12.1615C11.8969 12.1812 11.8447 12.1909 11.7921 12.1899C11.7395 12.189 11.6877 12.1775 11.6396 12.1561C11.5916 12.1347 11.5484 12.1038 11.5125 12.0654L9.06391 9.61676C8.4349 10.1407 7.66962 10.4745 6.85772 10.5791C6.04581 10.6837 5.2209 10.5548 4.47963 10.2075C3.73836 9.86011 3.11142 9.30871 2.67226 8.61786C2.2331 7.92701 1.99991 7.12531 2 6.30669Z" fill="black"/>
</svg>
