<svg width="14" height="14" viewBox="0 0 14 14" fill="none" xmlns="http://www.w3.org/2000/svg">
<path d="M6.6966 2.04088C6.72127 1.9807 6.76329 1.92922 6.8173 1.89298C6.87132 1.85675 6.93489 1.8374 6.99993 1.8374C7.06498 1.8374 7.12855 1.85675 7.18256 1.89298C7.23658 1.92922 7.27859 1.9807 7.30327 2.04088L8.54285 5.0223C8.56605 5.07809 8.6042 5.12639 8.65308 5.1619C8.70197 5.19741 8.7597 5.21874 8.81993 5.22355L12.0388 5.48138C12.3298 5.50472 12.4477 5.86813 12.226 6.05772L9.77368 8.15888C9.72787 8.19808 9.69372 8.24913 9.675 8.30644C9.65627 8.36375 9.65368 8.42511 9.66752 8.4838L10.4171 11.625C10.4322 11.6881 10.4282 11.7541 10.4058 11.8149C10.3833 11.8757 10.3433 11.9285 10.2909 11.9665C10.2385 12.0046 10.1759 12.0263 10.1112 12.0289C10.0464 12.0314 9.98237 12.0147 9.9271 11.9809L7.17085 10.298C7.11938 10.2665 7.06024 10.2499 6.99993 10.2499C6.93962 10.2499 6.88048 10.2665 6.82902 10.298L4.07277 11.9815C4.0175 12.0153 3.95345 12.032 3.8887 12.0294C3.82395 12.0269 3.76141 12.0052 3.70898 11.9671C3.65655 11.929 3.61658 11.8763 3.59411 11.8155C3.57165 11.7547 3.5677 11.6887 3.58277 11.6256L4.33235 8.4838C4.34625 8.42512 4.3437 8.36373 4.32496 8.30641C4.30623 8.24908 4.27205 8.19804 4.22618 8.15888L1.77385 6.05772C1.72447 6.01562 1.68869 5.95981 1.67104 5.89737C1.6534 5.83492 1.65468 5.76864 1.67473 5.70693C1.69479 5.64521 1.7327 5.59084 1.78368 5.55069C1.83466 5.51053 1.8964 5.48642 1.9611 5.48138L5.17993 5.22355C5.24016 5.21874 5.2979 5.19741 5.34678 5.1619C5.39567 5.12639 5.43381 5.07809 5.45702 5.0223L6.6966 2.04088Z" stroke="black" stroke-linecap="round" stroke-linejoin="round"/>
</svg>
