<svg width="16" height="16" viewBox="0 0 16 16" fill="none" xmlns="http://www.w3.org/2000/svg">
<path d="M11.3335 13.3332H14.6668V11.9998C14.6668 11.5842 14.5373 11.1789 14.2963 10.8403C14.0552 10.5016 13.7147 10.2465 13.322 10.1103C12.9293 9.97418 12.5039 9.96376 12.105 10.0805C11.7061 10.1973 11.3535 10.4354 11.0962 10.7618M11.3335 13.3332H4.66683M11.3335 13.3332V11.9998C11.3335 11.5625 11.2495 11.1445 11.0962 10.7618M11.0962 10.7618C10.8486 10.1431 10.4213 9.61281 9.86949 9.23925C9.31766 8.86569 8.66655 8.66604 8.00016 8.66604C7.33377 8.66604 6.68267 8.86569 6.13083 9.23925C5.57899 9.61281 5.15173 10.1431 4.90416 10.7618M4.66683 13.3332H1.3335V11.9998C1.33353 11.5842 1.46305 11.1789 1.70407 10.8403C1.94509 10.5016 2.28562 10.2465 2.67833 10.1103C3.07104 9.97418 3.49641 9.96376 3.89532 10.0805C4.29423 10.1973 4.64685 10.4354 4.90416 10.7618M4.66683 13.3332V11.9998C4.66683 11.5625 4.75083 11.1445 4.90416 10.7618M10.0002 4.6665C10.0002 5.19694 9.78945 5.70565 9.41438 6.08072C9.0393 6.45579 8.5306 6.6665 8.00016 6.6665C7.46973 6.6665 6.96102 6.45579 6.58595 6.08072C6.21088 5.70565 6.00016 5.19694 6.00016 4.6665C6.00016 4.13607 6.21088 3.62736 6.58595 3.25229C6.96102 2.87722 7.46973 2.6665 8.00016 2.6665C8.5306 2.6665 9.0393 2.87722 9.41438 3.25229C9.78945 3.62736 10.0002 4.13607 10.0002 4.6665ZM14.0002 6.6665C14.0002 7.02013 13.8597 7.35926 13.6096 7.60931C13.3596 7.85936 13.0205 7.99984 12.6668 7.99984C12.3132 7.99984 11.9741 7.85936 11.724 7.60931C11.474 7.35926 11.3335 7.02013 11.3335 6.6665C11.3335 6.31288 11.474 5.97374 11.724 5.7237C11.9741 5.47365 12.3132 5.33317 12.6668 5.33317C13.0205 5.33317 13.3596 5.47365 13.6096 5.7237C13.8597 5.97374 14.0002 6.31288 14.0002 6.6665ZM4.66683 6.6665C4.66683 7.02013 4.52635 7.35926 4.27631 7.60931C4.02626 7.85936 3.68712 7.99984 3.3335 7.99984C2.97987 7.99984 2.64074 7.85936 2.39069 7.60931C2.14064 7.35926 2.00016 7.02013 2.00016 6.6665C2.00016 6.31288 2.14064 5.97374 2.39069 5.7237C2.64074 5.47365 2.97987 5.33317 3.3335 5.33317C3.68712 5.33317 4.02626 5.47365 4.27631 5.7237C4.52635 5.97374 4.66683 6.31288 4.66683 6.6665Z" stroke="black" stroke-linecap="round" stroke-linejoin="round"/>
</svg>
