<svg width="59" height="57" viewBox="0 0 59 57" fill="none" xmlns="http://www.w3.org/2000/svg">
<path d="M13.7822 44.483C13.2935 44.3853 12.9025 44.2875 12.4138 44.0921C11.9251 43.8966 11.5341 43.7988 11.1431 43.6033C10.2634 43.2123 9.48139 42.7236 8.69942 42.1371C7.13548 41.0619 5.86478 39.5957 4.88732 37.8363C3.90985 36.1746 3.32338 34.2197 3.22563 32.3625C3.12788 31.385 3.22563 30.5053 3.32338 29.5279C3.42112 29.0391 3.51887 28.6481 3.61661 28.1594C3.71436 27.6707 3.90985 27.2797 4.0076 26.791L4.10535 28.1594C4.10535 28.6481 4.20309 29.0391 4.30084 29.5279C4.39859 30.4076 4.59408 31.2873 4.78957 32.0693C5.18056 33.7309 5.76703 35.2949 6.64675 36.7611C7.52647 38.2273 8.50393 39.5957 9.77463 40.8664C10.3611 41.4529 11.0453 42.0394 11.7296 42.6259C12.0228 42.9191 12.4138 43.2123 12.8048 43.5056L13.7822 44.483ZM13.489 48.0019C13.1958 48.1974 12.8048 48.2951 12.4138 48.3929C12.0228 48.4906 11.7296 48.5884 11.3386 48.5884C10.6544 48.6861 9.87238 48.7839 9.09041 48.6861C7.62421 48.5884 6.06027 48.1974 4.78957 47.5132C3.42112 46.829 2.24817 45.7537 1.4662 44.483C1.07521 43.8966 0.684224 43.2123 0.390985 42.5281C0.293239 42.2349 0.195493 41.8439 0.0977462 41.4529C0.0977462 41.1597 0 40.8664 0 40.4754C0.293239 40.7687 0.488732 41.0619 0.684224 41.2574C0.977463 41.5507 1.17296 41.8439 1.36845 42.0394C1.85718 42.5281 2.24817 43.0168 2.7369 43.4078C3.71436 44.2876 4.69182 45.0695 5.86478 45.656C6.93999 46.2425 8.21069 46.7312 9.38365 47.1222C9.97013 47.3177 10.6544 47.4154 11.3386 47.6109C11.6318 47.7087 12.0228 47.7087 12.316 47.8064C12.8048 47.9042 13.098 47.9042 13.489 48.0019ZM35.5797 0.497187C36.0684 0.594933 36.4594 0.790426 36.9481 0.985918C37.4368 1.18141 37.8278 1.3769 38.2188 1.5724C39.0985 2.06113 39.8805 2.54986 40.6625 3.13634C42.2264 4.30929 43.4971 5.87324 44.3768 7.63267C45.2566 9.3921 45.7453 11.347 45.7453 13.2042C45.7453 14.1817 45.6475 15.0614 45.452 16.0389C45.3543 16.5276 45.2566 16.9186 45.0611 17.4073C44.8656 17.896 44.7678 18.287 44.5723 18.678L44.4746 17.3096C44.4746 16.8208 44.4746 16.4298 44.3768 15.9411L44.0836 13.302C43.7904 11.6403 43.2039 9.97858 42.4219 8.41464C41.6399 6.8507 40.6625 5.48225 39.4895 4.21155C38.903 3.52732 38.2188 2.94085 37.6323 2.25662C37.3391 1.96338 36.9481 1.67014 36.5571 1.3769L35.5797 0.497187ZM44.0836 0.106201C44.4746 0.203948 44.7678 0.301694 45.0611 0.497187C45.3543 0.594933 45.7453 0.790426 46.0385 0.985918C46.625 1.3769 47.2115 1.76789 47.798 2.25662C48.8732 3.23408 49.7529 4.40704 50.2416 5.77549C50.8281 7.14394 51.0236 8.61013 50.8281 10.0763C50.7303 10.7606 50.5349 11.4448 50.3394 12.129C50.2416 12.4222 50.0461 12.8132 49.9484 13.1065C49.7529 13.3997 49.6551 13.6929 49.3619 13.9862V13.0087V12.0313C49.3619 11.347 49.2642 10.7606 49.2642 10.1741C49.0687 8.90337 48.8732 7.73042 48.3844 6.65521C47.8957 5.48225 47.3092 4.50479 46.625 3.42958C46.234 2.94085 45.843 2.35437 45.452 1.86564C45.2566 1.5724 45.0611 1.3769 44.7678 1.08366C44.5723 0.594933 44.2791 0.301694 44.0836 0.106201Z" fill="#42ADE2"/>
<path d="M7.81998 14.6703C5.86505 15.5501 5.18083 17.896 6.06054 19.8509L18.3766 45.5582L25.2188 42.3326L12.9028 16.5275C12.0231 14.5726 9.77491 13.6929 7.81998 14.6703ZM40.174 35.0993L47.4072 31.6782L33.3318 2.35431C32.3543 0.399384 30.0084 -0.480333 27.9557 0.49713C26.0008 1.47459 25.1211 3.82051 26.0985 5.87318L40.174 35.0993Z" fill="#FFDD67"/>
<path d="M28.0533 0.399316C27.8578 0.497063 27.6623 0.594809 27.4668 0.790301C29.324 0.30157 31.2789 1.18129 32.1586 2.94072L46.2341 32.2646L47.5048 31.6781L33.4293 2.35424C32.4519 0.30157 30.1059 -0.578147 28.0533 0.399316Z" fill="#EBA352"/>
<path d="M25.2187 42.235L32.7452 38.6183L18.3765 8.70796C17.399 6.65529 14.8576 5.67782 12.8049 6.65529C10.7523 7.63275 9.87254 10.1742 10.85 12.2268L25.2187 42.235Z" fill="#FFDD67"/>
<path d="M12.8047 6.75297C12.6092 6.85072 12.4138 6.94846 12.2183 7.14396C14.0754 6.65522 16.2259 7.53494 17.1056 9.39212L26.0005 28.0617L28.1509 29.3324L18.3763 8.80564C17.3988 6.65522 14.9552 5.77551 12.8047 6.75297Z" fill="#EBA352"/>
<path d="M31.5722 36.2722L39.0987 32.6555L24.73 2.74516C23.7525 0.69249 21.2111 -0.284974 19.1584 0.790236C17.1058 1.7677 16.2261 4.3091 17.2035 6.36178L31.5722 36.2722Z" fill="#FFDD67"/>
<path d="M19.158 0.692422C18.9625 0.790169 18.767 0.985661 18.5715 1.08341C20.4287 0.594676 22.5791 1.47439 23.4588 3.33157L33.5267 24.4448L35.6771 25.7155L24.7295 2.7451C23.752 0.594676 21.2106 -0.285041 19.158 0.692422ZM7.81939 14.6701C7.6239 14.7679 7.4284 14.8656 7.23291 15.0611C8.99234 14.5724 10.8495 15.4521 11.6315 17.2116L18.9625 32.5577L21.1129 33.8284L12.9022 16.6251C12.0225 14.5724 9.77432 13.6927 7.81939 14.6701Z" fill="#EBA352"/>
<path d="M57.4747 11.7378C54.8356 9.6851 50.5347 11.9333 48.3843 18.971C46.9181 23.8583 46.7226 25.3245 43.5947 26.7907L41.8353 23.1741C41.8353 23.1741 14.0754 36.5653 15.1506 38.7158C15.1506 38.7158 18.4739 49.0769 24.1432 53.8664C32.5494 61.0997 52.1964 53.3777 53.0761 34.7082C53.5649 23.8583 60.3094 13.9859 57.4747 11.7378Z" fill="#FFDD67"/>
<path d="M57.4746 11.7379C56.9858 11.3469 56.3994 11.1515 55.8129 11.0537C55.9106 11.1515 56.1061 11.1515 56.2039 11.2492C59.1363 13.4974 56.1061 18.6779 54.4444 23.3697C53.076 27.0841 51.903 30.8962 52.0985 34.6106C52.8805 50.8365 36.5569 58.5584 26.7822 55.626C36.3614 59.6336 54.1512 52.0094 53.3692 35.0993C53.1737 31.385 54.2489 27.7683 55.7151 23.8585C57.2791 19.1667 60.3092 13.9861 57.4746 11.7379Z" fill="#EBA352"/>
<path d="M44.4748 26.3999C38.4145 27.0841 29.5196 35.7836 35.7754 45.2649C31.1813 35.6858 38.7078 29.2345 43.4974 26.9864C43.9861 26.5954 44.4748 26.3999 44.4748 26.3999Z" fill="#EBA352"/>
</svg>
