<svg width="29" height="24" viewBox="0 0 29 24" fill="none" xmlns="http://www.w3.org/2000/svg">
<path d="M1.6 4C0 4 0 5.6 0 5.6V22.4C0 22.4 0 24 1.6 24H27.2C28.8 24 28.8 22.4 28.8 22.4V5.6C28.8 5.6 28.8 4 27.2 4H1.6Z" fill="#5C913B"/>
<path d="M1.6 0C0 0 0 1.6 0 1.6V17.6C0 17.6 0 19.2 1.6 19.2H27.2C28.8 19.2 28.8 17.6 28.8 17.6V1.6C28.8 1.6 28.8 0 27.2 0H1.6Z" fill="#A7D28B"/>
<path d="M20.0003 14.8001C22.8722 14.8001 25.2003 12.472 25.2003 9.60015C25.2003 6.72827 22.8722 4.40015 20.0003 4.40015C17.1284 4.40015 14.8003 6.72827 14.8003 9.60015C14.8003 12.472 17.1284 14.8001 20.0003 14.8001Z" fill="#77B255"/>
<path d="M26.3997 17.9999H2.39971C1.73811 17.9999 1.19971 17.4615 1.19971 16.7999V2.39995C1.19971 1.73835 1.73811 1.19995 2.39971 1.19995H26.3997C27.0613 1.19995 27.5997 1.73835 27.5997 2.39995V16.7999C27.5997 17.4615 27.0613 17.9999 26.3997 17.9999ZM2.39971 1.99995C2.17971 1.99995 1.99971 2.17915 1.99971 2.39995V16.7999C1.99971 17.0199 2.17971 17.1999 2.39971 17.1999H26.3997C26.6197 17.1999 26.7997 17.0199 26.7997 16.7999V2.39995C26.7997 2.17915 26.6197 1.99995 26.3997 1.99995H2.39971Z" fill="#5C913B"/>
<path d="M11.1997 0H17.5997V19.2496H11.1997V0Z" fill="#FFE8B6"/>
<path d="M11.1997 19.2H17.5997V23.9999H11.1997V19.2Z" fill="#FFAC33"/>
<path d="M4 5.33325H10.0933M4 8.07016H10.0933M8.31629 15.1866L4 10.8071H5.52333C8.90846 10.8071 8.90846 5.33325 5.52333 5.33325" stroke="#5C913B" stroke-linecap="round" stroke-linejoin="round"/>
</svg>
