<svg width="14" height="14" viewBox="0 0 14 14" fill="none" xmlns="http://www.w3.org/2000/svg">
<path d="M2.48473 5.91891C2.3258 7.13459 2.22927 8.3699 2.19843 9.62151C3.88775 10.3268 5.4945 11.1904 7.00012 12.1938C8.50575 11.1904 10.1125 10.3268 11.8018 9.62151C11.771 8.36991 11.6744 7.13461 11.5155 5.91893M2.48473 5.91891C1.9739 5.7472 1.45688 5.58899 0.934082 5.44469C2.82722 4.1177 4.85778 2.9734 7.00015 2.03735C9.14252 2.9734 11.1731 4.11771 13.0662 5.44469C12.5434 5.589 12.0264 5.74722 11.5155 5.91893M2.48473 5.91891C4.05228 6.4458 5.5615 7.09971 7.00015 7.8684C8.43878 7.09972 9.94798 6.44582 11.5155 5.91893M3.93762 8.75003C4.17925 8.75003 4.37512 8.55415 4.37512 8.31253C4.37512 8.07091 4.17925 7.87503 3.93762 7.87503C3.696 7.87503 3.50012 8.07091 3.50012 8.31253C3.50012 8.55415 3.696 8.75003 3.93762 8.75003ZM3.93762 8.75003V6.60597C4.92432 5.9929 5.94641 5.43141 7.00012 4.92528M2.9125 11.6624C3.59591 10.979 3.93762 10.0833 3.93762 9.18753V8.31253" stroke="#383838" stroke-linecap="round" stroke-linejoin="round"/>
</svg>
