<svg width="14" height="14" viewBox="0 0 14 14" fill="none" xmlns="http://www.w3.org/2000/svg">
<path d="M11.6668 7V9.91667C11.6668 11.0168 11.6668 11.5663 11.325 11.9082C10.9832 12.25 10.4337 12.25 9.3335 12.25H3.79183C3.40506 12.25 3.03412 12.0964 2.76063 11.8229C2.48714 11.5494 2.3335 11.1784 2.3335 10.7917M11.6668 7C11.6668 8.10017 11.6668 8.64967 11.325 8.9915C10.9832 9.33333 10.4337 9.33333 9.3335 9.33333H3.79183C3.40506 9.33333 3.03412 9.48698 2.76063 9.76047C2.48714 10.034 2.3335 10.4049 2.3335 10.7917M11.6668 7V4.08333C11.6668 2.98317 11.6668 2.43367 11.325 2.09183C10.9832 1.75 10.4337 1.75 9.3335 1.75H4.66683C3.56666 1.75 3.01716 1.75 2.67533 2.09183C2.3335 2.43367 2.3335 2.98317 2.3335 4.08333V10.7917" stroke="black"/>
<path d="M5.25 4.6665H8.75" stroke="black" stroke-linecap="round"/>
</svg>
