<svg width="24" height="24" viewBox="0 0 24 24" fill="none" xmlns="http://www.w3.org/2000/svg">
<path d="M20.5 16.929V10C20.5 6.229 20.5 4.343 19.328 3.172C18.156 2.001 16.271 2 12.5 2H11.5C7.729 2 5.843 2 4.672 3.172C3.501 4.344 3.5 6.229 3.5 10V19.5" stroke="black" stroke-width="1.5" stroke-linecap="round" stroke-linejoin="round"/>
<path d="M20.5 17H6C5.33696 17 4.70107 17.2634 4.23223 17.7322C3.76339 18.2011 3.5 18.837 3.5 19.5C3.5 20.163 3.76339 20.7989 4.23223 21.2678C4.70107 21.7366 5.33696 22 6 22H20.5" stroke="black" stroke-width="1.5" stroke-linecap="round" stroke-linejoin="round"/>
<path d="M20.5 22C19.837 22 19.2011 21.7366 18.7322 21.2678C18.2634 20.7989 18 20.163 18 19.5C18 18.837 18.2634 18.2011 18.7322 17.7322C19.2011 17.2634 19.837 17 20.5 17M15 7H9M12 11H9" stroke="black" stroke-width="1.5" stroke-linecap="round" stroke-linejoin="round"/>
</svg>
