<svg width="14" height="14" viewBox="0 0 14 14" fill="none" xmlns="http://www.w3.org/2000/svg">
<path d="M10.0075 13.0003V9.66699M3.34082 13.0003V9.66699" stroke="black" stroke-linecap="round"/>
<path d="M9.0074 7H4.34073C3.24073 7 2.69073 7 2.34873 7.39067C2.15806 7.608 2.07406 7.9 2.03673 8.334C1.9854 8.934 1.9594 9.23467 2.1574 9.45067C2.3554 9.66667 2.68406 9.66667 3.34073 9.66667H10.0074C10.6641 9.66667 10.9921 9.66667 11.1901 9.45067C11.3887 9.23467 11.3627 8.93467 11.3107 8.334C11.2741 7.90067 11.1894 7.60867 10.9987 7.39067C10.6574 7 10.1074 7 9.0074 7ZM3.34073 4.33333C3.34073 3.08667 3.34073 2.464 3.60873 2C3.78426 1.69599 4.03672 1.44353 4.34073 1.268C4.80473 1 5.4274 1 6.67406 1C7.92073 1 8.5434 1 9.0074 1.268C9.31141 1.44353 9.56387 1.69599 9.7394 2C10.0074 2.464 10.0074 3.08667 10.0074 4.33333V7H3.34073V4.33333Z" stroke="black"/>
</svg>
