<svg width="24" height="24" viewBox="0 0 24 24" fill="none" xmlns="http://www.w3.org/2000/svg">
<path d="M20 6.80769C20 8.91062 16.4183 10.6154 12 10.6154C7.58172 10.6154 4 8.91062 4 6.80769M20 6.80769C20 4.70476 16.4183 3 12 3C7.58172 3 4 4.70476 4 6.80769M20 6.80769V17.1923C20 19.2952 16.4183 21 12 21C7.58172 21 4 19.2952 4 17.1923V6.80769M20 6.80769V10.2692M4 6.80769V10.2692M20 10.2692V13.7308C20 15.8337 16.4183 17.5385 12 17.5385C7.58172 17.5385 4 15.8337 4 13.7308V10.2692M20 10.2692C20 12.3722 16.4183 14.0769 12 14.0769C7.58172 14.0769 4 12.3722 4 10.2692" stroke="black" stroke-width="1.5" stroke-linecap="round" stroke-linejoin="round"/>
</svg>
