<svg width="14" height="14" viewBox="0 0 14 14" fill="none" xmlns="http://www.w3.org/2000/svg">
<path d="M5.25 4.66667H8.75M5.83333 4.66667C6.06315 4.66667 6.29071 4.71193 6.50303 4.79988C6.71535 4.88782 6.90827 5.01673 7.07077 5.17923C7.23327 5.34173 7.36218 5.53465 7.45012 5.74697C7.53807 5.95929 7.58333 6.18685 7.58333 6.41667C7.58333 6.64648 7.53807 6.87404 7.45012 7.08636C7.36218 7.29868 7.23327 7.4916 7.07077 7.6541C6.90827 7.81661 6.71535 7.94551 6.50303 8.03346C6.29071 8.1214 6.06315 8.16667 5.83333 8.16667H5.25L7 9.91667M5.25 6.41667H8.75M12.25 7C12.25 7.68944 12.1142 8.37213 11.8504 9.00909C11.5865 9.64605 11.1998 10.2248 10.7123 10.7123C10.2248 11.1998 9.64605 11.5865 9.00909 11.8504C8.37213 12.1142 7.68944 12.25 7 12.25C6.31056 12.25 5.62787 12.1142 4.99091 11.8504C4.35395 11.5865 3.7752 11.1998 3.28769 10.7123C2.80018 10.2248 2.41347 9.64605 2.14963 9.00909C1.8858 8.37213 1.75 7.68944 1.75 7C1.75 5.60761 2.30312 4.27226 3.28769 3.28769C4.27226 2.30312 5.60761 1.75 7 1.75C8.39239 1.75 9.72774 2.30312 10.7123 3.28769C11.6969 4.27226 12.25 5.60761 12.25 7Z" stroke="#383838" stroke-linecap="round" stroke-linejoin="round"/>
</svg>
