<svg width="14" height="14" viewBox="0 0 14 14" fill="none" xmlns="http://www.w3.org/2000/svg">
<path d="M9.34558 4.11538C9.34558 4.67642 9.12271 5.21447 8.726 5.61118C8.32929 6.0079 7.79124 6.23077 7.2302 6.23077C6.66917 6.23077 6.13111 6.0079 5.7344 5.61118C5.33769 5.21447 5.11482 4.67642 5.11482 4.11538C5.11482 3.55435 5.33769 3.01629 5.7344 2.61958C6.13111 2.22287 6.66917 2 7.2302 2C7.79124 2 8.32929 2.22287 8.726 2.61958C9.12271 3.01629 9.34558 3.55435 9.34558 4.11538ZM3 12.0794C3.01813 10.9694 3.47178 9.91106 4.26312 9.13253C5.05447 8.35401 6.1201 7.9177 7.2302 7.9177C8.3403 7.9177 9.40593 8.35401 10.1973 9.13253C10.9886 9.91106 11.4423 10.9694 11.4604 12.0794C10.1333 12.6879 8.69018 13.002 7.2302 13C5.72066 13 4.28784 12.6706 3 12.0794Z" stroke="black" stroke-linecap="round" stroke-linejoin="round"/>
</svg>
