<svg width="24" height="24" viewBox="0 0 24 24" fill="none" xmlns="http://www.w3.org/2000/svg">
<path d="M11.4525 14.9093L16.8273 20.2841C17.7818 21.2386 19.3295 21.2386 20.2841 20.2841C21.2386 19.3295 21.2386 17.7818 20.2841 16.8273L14.8668 11.41M11.4525 14.9093L13.7534 12.1152C14.0447 11.7615 14.4344 11.539 14.8668 11.41M11.4525 14.9093L7.16138 20.1199C6.71526 20.6616 6.05027 20.9754 5.3485 20.9754C4.05146 20.9754 3 19.924 3 18.6269C3 17.9252 3.31383 17.2602 3.85554 16.8141L10.1576 11.6242M14.8668 11.41C15.3733 11.259 15.9384 11.2363 16.4732 11.2815C16.5899 11.2913 16.708 11.2964 16.8273 11.2964C19.1182 11.2964 20.9754 9.43915 20.9754 7.14818C20.9754 6.53953 20.8443 5.9615 20.6089 5.44078L17.5888 8.46082C16.5604 8.22472 15.7508 7.41516 15.5147 6.38673L18.5348 3.36664C18.0141 3.13111 17.436 3 16.8273 3C14.5363 3 12.6791 4.8572 12.6791 7.14818C12.6791 7.26745 12.6841 7.38554 12.694 7.50226C12.7778 8.49362 12.6282 9.58953 11.8602 10.222L11.7661 10.2995M10.1576 11.6242L6.37294 7.83954H5.07409L3 4.38273L4.38273 3L7.83954 5.07409V6.37294L11.7661 10.2995M10.1576 11.6242L11.7661 10.2995M17.8643 17.8643L15.4445 15.4445M5.41261 18.5557H5.41952V18.5626H5.41261V18.5557Z" stroke="black" stroke-width="1.25" stroke-linecap="round" stroke-linejoin="round"/>
</svg>
